<mxfile host="app.diagrams.net" agent="Mozilla/5.0 (Windows NT 10.0; Win64; x64) AppleWebKit/537.36 (KHTML, like Gecko) Chrome/132.0.0.0 Safari/537.36" version="26.0.11">
  <diagram id="DIAGRAM111111111xx01" name="Page-1">
    <mxGraphModel dx="1900" dy="530" grid="1" gridSize="10" guides="1" tooltips="1" connect="1" arrows="1" fold="1" page="1" pageScale="1" pageWidth="850" pageHeight="1100" math="0" shadow="0">
      <root>
        <mxCell id="0" />
        <mxCell id="1" parent="0" />
        <UserObject label="" plantUmlData="{&#xa;  &quot;data&quot;: &quot;@startuml\n\n&amp;apos; Définition des entités principales\n\ntitle Notification Service - Diagramme UML\n\n&amp;apos; Classe d&amp;apos;audit générique\nabstract class DateAudit {\n  +Date createdAt\n  +Date updatedAt\n}\n\nclass Notification {\n  +Long id\n  +Long recipientId\n  +String message\n  +NotificationType type\n  +NotificationStatus status\n  +NotificationTemplate template\n}\n\nenum NotificationType {\n  EMAIL\n  SMS\n  PUSH\n}\n\nenum NotificationStatus {\n  PENDING\n  SENT\n  FAIL\n}\n\nclass NotificationTemplate {\n  +Long id\n  +String name\n  +String subject\n  +String templateBody\n  +NotificationType type\n}\n\n&amp;apos; DTO utilisé pour l&amp;apos;envoi des notifications\nclass NotificationDTO {\n  +Long recipientId\n  +String message\n  +NotificationType type\n  +Long templateId\n}\n\n&amp;apos; Mapper pour convertir un DTO en Entité\nclass NotificationMapper {\n  +Notification toEntity(NotificationDTO dto)\n  +NotificationDTO toDto(Notification notification)\n}\n\n&amp;apos; Interface de service\ninterface NotificationService {\n  +void sendNotification(NotificationDTO notificationDTO)\n  +List&amp;lt;Notification&amp;gt; getUserNotifications(Long recipientId)\n  +void markAsSent(Long notificationId)\n  +void createTemplate(NotificationTemplate template)\n}\n\n&amp;apos; Implémentation du service\nclass NotificationServiceImpl {\n  +void sendNotification(NotificationDTO notificationDTO)\n  +List&amp;lt;Notification&amp;gt; getUserNotifications(Long recipientId)\n  +void markAsSent(Long notificationId)\n  +void createTemplate(NotificationTemplate template)\n}\n\n&amp;apos; Repository pour l&amp;apos;accès aux données\nclass NotificationRepository {\n  +Optional&amp;lt;Notification&amp;gt; findById(Long id)\n  +List&amp;lt;Notification&amp;gt; findByRecipientId(Long recipientId)\n  +void save(Notification notification)\n}\n\n&amp;apos; Client abstrait pour gérer l&amp;apos;envoi de notifications (Email, SMS, Push)\ninterface NotificationClient {\n  +void send(Notification notification)\n}\n\n\n&amp;apos; Feign Client pour la communication avec d&amp;apos;autres services\nclass UserFeignClient {\n  +UserDTO getUserById(Long recipientId)\n}\n\n&amp;apos; Relations entre les classes\nNotificationServiceImpl ..|&amp;gt; NotificationService\nNotificationServiceImpl ..&amp;gt; NotificationRepository : &amp;quot;Utilise&amp;quot;\nNotificationServiceImpl ..&amp;gt; NotificationClient : &amp;quot;Délègue l&amp;apos;envoi via abstraction&amp;quot;\nNotificationServiceImpl ..&amp;gt; UserFeignClient : &amp;quot;Récupère utilisateur via FeignClient&amp;quot;\n\n&amp;apos; Héritage de DateAudit\nNotification --|&amp;gt; DateAudit\nNotificationTemplate --|&amp;gt; DateAudit\n\n&amp;apos; Lien entre Notification et NotificationTemplate\nNotification &amp;quot;1&amp;quot; --&amp;gt; &amp;quot;0..1&amp;quot; NotificationTemplate : &amp;quot;Utilise un template&amp;quot;\n\n&amp;apos; Ajout du lien entre NotificationDTO et Notification via le Mapper\nNotificationDTO ..&amp;gt; NotificationMapper : &amp;quot;Converti en&amp;quot;\nNotification ..&amp;gt; NotificationMapper : &amp;quot;Converti en&amp;quot;\nNotificationMapper ..&amp;gt; Notification : &amp;quot;Crée une instance de&amp;quot;\n\n&amp;apos; Lien entre Notification et Enums\nNotification --&amp;gt; NotificationType : &amp;quot;type&amp;quot;\nNotification --&amp;gt; NotificationStatus : &amp;quot;status&amp;quot;\nNotificationTemplate --&amp;gt; NotificationType : &amp;quot;type&amp;quot;\nNotificationDTO --&amp;gt; NotificationType : &amp;quot;type&amp;quot;\n@enduml&quot;,&#xa;  &quot;format&quot;: &quot;svg&quot;&#xa;}" id="USEROBJECT111111xx01-1">
          <mxCell style="shape=image;noLabel=1;verticalAlign=top;aspect=fixed;imageAspect=0;image=data:image/svg+xml,PHN2ZyB4bWxucz0iaHR0cDovL3d3dy53My5vcmcvMjAwMC9zdmciIHhtbG5zOnhsaW5rPSJodHRwOi8vd3d3LnczLm9yZy8xOTk5L3hsaW5rIiBjb250ZW50U3R5bGVUeXBlPSJ0ZXh0L2NzcyIgZGF0YS1kaWFncmFtLXR5cGU9IkNMQVNTIiBoZWlnaHQ9IjU5OXB4IiBwcmVzZXJ2ZUFzcGVjdFJhdGlvPSJub25lIiBzdHlsZT0id2lkdGg6MjI3MXB4O2hlaWdodDo1OTlweDtiYWNrZ3JvdW5kOiNGRkZGRkY7IiB2ZXJzaW9uPSIxLjEiIHZpZXdCb3g9IjAgMCAyMjcxIDU5OSIgd2lkdGg9IjIyNzFweCIgem9vbUFuZFBhbj0ibWFnbmlmeSI+PHRpdGxlPk5vdGlmaWNhdGlvbiBTZXJ2aWNlIC0gRGlhZ3JhbW1lIFVNTDwvdGl0bGU+PGRlZnMvPjxnPjx0ZXh0IGZpbGw9IiMwMDAwMDAiIGZvbnQtZmFtaWx5PSJzYW5zLXNlcmlmIiBmb250LXNpemU9IjE0IiBmb250LXdlaWdodD0iYm9sZCIgbGVuZ3RoQWRqdXN0PSJzcGFjaW5nIiB0ZXh0TGVuZ3RoPSIyNTMuNjEzMyIgeD0iMTAwMi4xNDYiIHk9IjI0LjUzMzIiPk5vdGlmaWNhdGlvbiBTZXJ2aWNlIC0gRGlhZ3JhbW1lIFVNTDwvdGV4dD48IS0tY2xhc3MgRGF0ZUF1ZGl0LS0+PGcgaWQ9ImVsZW1fRGF0ZUF1ZGl0Ij48cmVjdCBjb2RlTGluZT0iNyIgZmlsbD0iI0YxRjFGMSIgaGVpZ2h0PSI4My4yMTg4IiBpZD0iRGF0ZUF1ZGl0IiByeD0iMi41IiByeT0iMi41IiBzdHlsZT0ic3Ryb2tlOiMxODE4MTg7c3Ryb2tlLXdpZHRoOjAuNTsiIHdpZHRoPSIxMjMuMjk1OSIgeD0iMTguOTIiIHk9IjUwMC42MDk0Ii8+PGVsbGlwc2UgY3g9IjQ3LjMzNjEiIGN5PSI1MTYuNjA5NCIgZmlsbD0iI0E5RENERiIgcng9IjExIiByeT0iMTEiIHN0eWxlPSJzdHJva2U6IzE4MTgxODtzdHJva2Utd2lkdGg6MTsiLz48cGF0aCBkPSJNNDkuNTIzNiw1MTguMzc1IEw0NS4zODI5LDUxOC4zNzUgTDQ0Ljk2MTEsNTE5LjQwNjMgTDQ1LjM4MjksNTE5LjQwNjMgUTQ1Ljk5MjMsNTE5LjQwNjMgNDYuMjU3OSw1MTkuNjQwNiBRNDYuNTIzNiw1MTkuODc1IDQ2LjUyMzYsNTIwLjI2NTYgUTQ2LjUyMzYsNTIwLjY0MDYgNDYuMjU3OSw1MjAuODc1IFE0NS45OTIzLDUyMS4xMDk0IDQ1LjM4MjksNTIxLjEwOTQgTDQzLjA4NjEsNTIxLjEwOTQgUTQyLjQ3NjcsNTIxLjEwOTQgNDIuMjI2Nyw1MjAuODc1IFE0MS45NjExLDUyMC42NDA2IDQxLjk2MTEsNTIwLjI1IFE0MS45NjExLDUxOS44NzUgNDIuMjQyMyw1MTkuNjQwNiBRNDIuNTA3OSw1MTkuMzkwNiA0My4xMzI5LDUxOS40MDYzIEw0NS44MDQ4LDUxMi43NSBMNDQuNjk1NCw1MTIuNzUgUTQ0LjA4NjEsNTEyLjc1IDQzLjgyMDQsNTEyLjUxNTYgUTQzLjU1NDgsNTEyLjI4MTMgNDMuNTU0OCw1MTEuODkwNiBRNDMuNTU0OCw1MTEuNTE1NiA0My44MjA0LDUxMS4yODEzIFE0NC4wODYxLDUxMS4wNDY5IDQ0LjY5NTQsNTExLjA0NjkgTDQ4LjM2NzMsNTExLjA0NjkgTDUxLjc1NzksNTE5LjQwNjMgUTUyLjM1MTcsNTE5LjQwNjMgNTIuNTM5Miw1MTkuNTQ2OSBRNTIuOTI5OCw1MTkuODEyNSA1Mi45Mjk4LDUyMC4yNjU2IFE1Mi45Mjk4LDUyMC42NDA2IDUyLjY2NDIsNTIwLjg3NSBRNTIuNDE0Miw1MjEuMTA5NCA1MS44MDQ4LDUyMS4xMDk0IEw0OS41MDc5LDUyMS4xMDk0IFE0OC44OTg2LDUyMS4xMDk0IDQ4LjYzMjksNTIwLjg3NSBRNDguMzY3Myw1MjAuNjQwNiA0OC4zNjczLDUyMC4yNSBRNDguMzY3Myw1MTkuODc1IDQ4LjYzMjksNTE5LjY0MDYgUTQ4Ljg5ODYsNTE5LjQwNjMgNDkuNTA3OSw1MTkuNDA2MyBMNDkuOTI5OCw1MTkuNDA2MyBMNDkuNTIzNiw1MTguMzc1IFogTTQ4LjgwNDgsNTE2LjY3MTkgTDQ3LjQ0NTQsNTEzLjI5NjkgTDQ2LjA3MDQsNTE2LjY3MTkgTDQ4LjgwNDgsNTE2LjY3MTkgWiAiIGZpbGw9IiMwMDAwMDAiLz48dGV4dCBmaWxsPSIjMDAwMDAwIiBmb250LWZhbWlseT0ic2Fucy1zZXJpZiIgZm9udC1zaXplPSIxNCIgZm9udC1zdHlsZT0iaXRhbGljIiBsZW5ndGhBZGp1c3Q9InNwYWNpbmciIHRleHRMZW5ndGg9IjYxLjQ4MjQiIHg9IjY0LjMxNzQiIHk9IjUyMi4zMzc5Ij5EYXRlQXVkaXQ8L3RleHQ+PGxpbmUgc3R5bGU9InN0cm9rZTojMTgxODE4O3N0cm9rZS13aWR0aDowLjU7IiB4MT0iMTkuOTIiIHgyPSIxNDEuMjE1OSIgeTE9IjUzMi42MDk0IiB5Mj0iNTMyLjYwOTQiLz48ZWxsaXBzZSBjeD0iMjkuOTIiIGN5PSI1NDYuOTE0MSIgZmlsbD0idHJhbnNwYXJlbnQiIHJ4PSIzIiByeT0iMyIgc3R5bGU9InN0cm9rZTojMDM4MDQ4O3N0cm9rZS13aWR0aDoxOyIvPjx0ZXh0IGZpbGw9IiMwMDAwMDAiIGZvbnQtZmFtaWx5PSJzYW5zLXNlcmlmIiBmb250LXNpemU9IjE0IiBsZW5ndGhBZGp1c3Q9InNwYWNpbmciIHRleHRMZW5ndGg9IjkzLjM4NTciIHg9IjM4LjkyIiB5PSI1NTEuMTQyNiI+RGF0ZSBjcmVhdGVkQXQ8L3RleHQ+PGVsbGlwc2UgY3g9IjI5LjkyIiBjeT0iNTY0LjUyMzQiIGZpbGw9InRyYW5zcGFyZW50IiByeD0iMyIgcnk9IjMiIHN0eWxlPSJzdHJva2U6IzAzODA0ODtzdHJva2Utd2lkdGg6MTsiLz48dGV4dCBmaWxsPSIjMDAwMDAwIiBmb250LWZhbWlseT0ic2Fucy1zZXJpZiIgZm9udC1zaXplPSIxNCIgbGVuZ3RoQWRqdXN0PSJzcGFjaW5nIiB0ZXh0TGVuZ3RoPSI5Ny4yOTU5IiB4PSIzOC45MiIgeT0iNTY4Ljc1MiI+RGF0ZSB1cGRhdGVkQXQ8L3RleHQ+PGxpbmUgc3R5bGU9InN0cm9rZTojMTgxODE4O3N0cm9rZS13aWR0aDowLjU7IiB4MT0iMTkuOTIiIHgyPSIxNDEuMjE1OSIgeTE9IjU3NS44MjgxIiB5Mj0iNTc1LjgyODEiLz48L2c+PCEtLWNsYXNzIE5vdGlmaWNhdGlvbi0tPjxnIGlkPSJlbGVtX05vdGlmaWNhdGlvbiI+PHJlY3QgY29kZUxpbmU9IjEyIiBmaWxsPSIjRjFGMUYxIiBoZWlnaHQ9IjE1My42NTYzIiBpZD0iTm90aWZpY2F0aW9uIiByeD0iMi41IiByeT0iMi41IiBzdHlsZT0ic3Ryb2tlOiMxODE4MTg7c3Ryb2tlLXdpZHRoOjAuNTsiIHdpZHRoPSIyMTEuMTk5MiIgeD0iMTU3LjkyIiB5PSI0NS42MDk0Ii8+PGVsbGlwc2UgY3g9IjIyNC42NDIyIiBjeT0iNjEuNjA5NCIgZmlsbD0iI0FERDFCMiIgcng9IjExIiByeT0iMTEiIHN0eWxlPSJzdHJva2U6IzE4MTgxODtzdHJva2Utd2lkdGg6MTsiLz48cGF0aCBkPSJNMjI3LjQwNzgsNTcuNDg0NCBRMjI3LjU2NCw1Ny4yNjU2IDIyNy43NTE1LDU3LjE1NjMgUTIyNy45MzksNTcuMDQ2OSAyMjguMTU3OCw1Ny4wNDY5IFEyMjguNTMyOCw1Ny4wNDY5IDIyOC43NjcyLDU3LjMxMjUgUTIyOS4wMDE1LDU3LjU2MjUgMjI5LjAwMTUsNTguMTcxOSBMMjI5LjAwMTUsNTkuNjI1IFEyMjkuMDAxNSw2MC4yMzQ0IDIyOC43NjcyLDYwLjUgUTIyOC41MzI4LDYwLjc2NTYgMjI4LjE1NzgsNjAuNzY1NiBRMjI3LjgxNCw2MC43NjU2IDIyNy42MTA5LDYwLjU2MjUgUTIyNy40MDc4LDYwLjM3NSAyMjcuMjk4NCw1OS44NTk0IFEyMjcuMjUxNSw1OS41IDIyNy4wNjQsNTkuMzEyNSBRMjI2LjczNTksNTguOTM3NSAyMjYuMTI2NSw1OC43MTg4IFEyMjUuNTE3Miw1OC41IDIyNC44OTIyLDU4LjUgUTIyNC4xMjY1LDU4LjUgMjIzLjQ4NTksNTguODI4MSBRMjIyLjg2MDksNTkuMTU2MyAyMjIuMzYwOSw1OS45MDYzIFEyMjEuODc2NSw2MC42NTYzIDIyMS44NzY1LDYxLjY4NzUgTDIyMS44NzY1LDYyLjc4MTMgUTIyMS44NzY1LDY0LjAxNTYgMjIyLjc2NzIsNjQuODQzOCBRMjIzLjY1NzgsNjUuNjU2MyAyMjUuMjUxNSw2NS42NTYzIFEyMjYuMTg5LDY1LjY1NjMgMjI2Ljg0NTMsNjUuNDA2MyBRMjI3LjIzNTksNjUuMjUgMjI3LjY1NzgsNjQuODEyNSBRMjI3LjkyMzQsNjQuNTQ2OSAyMjguMDY0LDY0LjQ2ODggUTIyOC4yMjAzLDY0LjM5MDYgMjI4LjQyMzQsNjQuMzkwNiBRMjI4Ljc1MTUsNjQuMzkwNiAyMjkuMDAxNSw2NC42NTYzIFEyMjkuMjY3Miw2NC45MDYzIDIyOS4yNjcyLDY1LjI1IFEyMjkuMjY3Miw2NS41OTM4IDIyOC45MjM0LDY2IFEyMjguNDIzNCw2Ni41NzgxIDIyNy42MjY1LDY2LjkwNjMgUTIyNi41NDg0LDY3LjM1OTQgMjI1LjI1MTUsNjcuMzU5NCBRMjIzLjczNTksNjcuMzU5NCAyMjIuNTMyOCw2Ni43MzQ0IFEyMjEuNTQ4NCw2Ni4yMzQ0IDIyMC44NjA5LDY1LjE3MTkgUTIyMC4xNzM0LDY0LjA5MzggMjIwLjE3MzQsNjIuODEyNSBMMjIwLjE3MzQsNjEuNjU2MyBRMjIwLjE3MzQsNjAuMzI4MSAyMjAuNzgyOCw1OS4xODc1IFEyMjEuNDA3OCw1OC4wMzEzIDIyMi41MDE1LDU3LjQyMTkgUTIyMy41OTUzLDU2Ljc5NjkgMjI0LjgyOTcsNTYuNzk2OSBRMjI1LjU2NCw1Ni43OTY5IDIyNi4yMDQ3LDU2Ljk2ODggUTIyNi44NjA5LDU3LjEyNSAyMjcuNDA3OCw1Ny40ODQ0IFogIiBmaWxsPSIjMDAwMDAwIi8+PHRleHQgZmlsbD0iIzAwMDAwMCIgZm9udC1mYW1pbHk9InNhbnMtc2VyaWYiIGZvbnQtc2l6ZT0iMTQiIGxlbmd0aEFkanVzdD0ic3BhY2luZyIgdGV4dExlbmd0aD0iNjkuMjU0OSIgeD0iMjQ1LjE0MjIiIHk9IjY3LjMzNzkiPk5vdGlmaWNhdGlvbjwvdGV4dD48bGluZSBzdHlsZT0ic3Ryb2tlOiMxODE4MTg7c3Ryb2tlLXdpZHRoOjAuNTsiIHgxPSIxNTguOTIiIHgyPSIzNjguMTE5MiIgeTE9Ijc3LjYwOTQiIHkyPSI3Ny42MDk0Ii8+PGVsbGlwc2UgY3g9IjE2OC45MiIgY3k9IjkxLjkxNDEiIGZpbGw9InRyYW5zcGFyZW50IiByeD0iMyIgcnk9IjMiIHN0eWxlPSJzdHJva2U6IzAzODA0ODtzdHJva2Utd2lkdGg6MTsiLz48dGV4dCBmaWxsPSIjMDAwMDAwIiBmb250LWZhbWlseT0ic2Fucy1zZXJpZiIgZm9udC1zaXplPSIxNCIgbGVuZ3RoQWRqdXN0PSJzcGFjaW5nIiB0ZXh0TGVuZ3RoPSI0NS45MzA3IiB4PSIxNzcuOTIiIHk9Ijk2LjE0MjYiPkxvbmcgaWQ8L3RleHQ+PGVsbGlwc2UgY3g9IjE2OC45MiIgY3k9IjEwOS41MjM0IiBmaWxsPSJ0cmFuc3BhcmVudCIgcng9IjMiIHJ5PSIzIiBzdHlsZT0ic3Ryb2tlOiMwMzgwNDg7c3Ryb2tlLXdpZHRoOjE7Ii8+PHRleHQgZmlsbD0iIzAwMDAwMCIgZm9udC1mYW1pbHk9InNhbnMtc2VyaWYiIGZvbnQtc2l6ZT0iMTQiIGxlbmd0aEFkanVzdD0ic3BhY2luZyIgdGV4dExlbmd0aD0iOTkuNjI3IiB4PSIxNzcuOTIiIHk9IjExMy43NTIiPkxvbmcgcmVjaXBpZW50SWQ8L3RleHQ+PGVsbGlwc2UgY3g9IjE2OC45MiIgY3k9IjEyNy4xMzI4IiBmaWxsPSJ0cmFuc3BhcmVudCIgcng9IjMiIHJ5PSIzIiBzdHlsZT0ic3Ryb2tlOiMwMzgwNDg7c3Ryb2tlLXdpZHRoOjE7Ii8+PHRleHQgZmlsbD0iIzAwMDAwMCIgZm9udC1mYW1pbHk9InNhbnMtc2VyaWYiIGZvbnQtc2l6ZT0iMTQiIGxlbmd0aEFkanVzdD0ic3BhY2luZyIgdGV4dExlbmd0aD0iOTcuMjY4NiIgeD0iMTc3LjkyIiB5PSIxMzEuMzYxMyI+U3RyaW5nIG1lc3NhZ2U8L3RleHQ+PGVsbGlwc2UgY3g9IjE2OC45MiIgY3k9IjE0NC43NDIyIiBmaWxsPSJ0cmFuc3BhcmVudCIgcng9IjMiIHJ5PSIzIiBzdHlsZT0ic3Ryb2tlOiMwMzgwNDg7c3Ryb2tlLXdpZHRoOjE7Ii8+PHRleHQgZmlsbD0iIzAwMDAwMCIgZm9udC1mYW1pbHk9InNhbnMtc2VyaWYiIGZvbnQtc2l6ZT0iMTQiIGxlbmd0aEFkanVzdD0ic3BhY2luZyIgdGV4dExlbmd0aD0iMTMwLjczMDUiIHg9IjE3Ny45MiIgeT0iMTQ4Ljk3MDciPk5vdGlmaWNhdGlvblR5cGUgdHlwZTwvdGV4dD48ZWxsaXBzZSBjeD0iMTY4LjkyIiBjeT0iMTYyLjM1MTYiIGZpbGw9InRyYW5zcGFyZW50IiByeD0iMyIgcnk9IjMiIHN0eWxlPSJzdHJva2U6IzAzODA0ODtzdHJva2Utd2lkdGg6MTsiLz48dGV4dCBmaWxsPSIjMDAwMDAwIiBmb250LWZhbWlseT0ic2Fucy1zZXJpZiIgZm9udC1zaXplPSIxNCIgbGVuZ3RoQWRqdXN0PSJzcGFjaW5nIiB0ZXh0TGVuZ3RoPSIxNTAuMTg1NSIgeD0iMTc3LjkyIiB5PSIxNjYuNTgwMSI+Tm90aWZpY2F0aW9uU3RhdHVzIHN0YXR1czwvdGV4dD48ZWxsaXBzZSBjeD0iMTY4LjkyIiBjeT0iMTc5Ljk2MDkiIGZpbGw9InRyYW5zcGFyZW50IiByeD0iMyIgcnk9IjMiIHN0eWxlPSJzdHJva2U6IzAzODA0ODtzdHJva2Utd2lkdGg6MTsiLz48dGV4dCBmaWxsPSIjMDAwMDAwIiBmb250LWZhbWlseT0ic2Fucy1zZXJpZiIgZm9udC1zaXplPSIxNCIgbGVuZ3RoQWRqdXN0PSJzcGFjaW5nIiB0ZXh0TGVuZ3RoPSIxODUuMTk5MiIgeD0iMTc3LjkyIiB5PSIxODQuMTg5NSI+Tm90aWZpY2F0aW9uVGVtcGxhdGUgdGVtcGxhdGU8L3RleHQ+PGxpbmUgc3R5bGU9InN0cm9rZTojMTgxODE4O3N0cm9rZS13aWR0aDowLjU7IiB4MT0iMTU4LjkyIiB4Mj0iMzY4LjExOTIiIHkxPSIxOTEuMjY1NiIgeTI9IjE5MS4yNjU2Ii8+PC9nPjwhLS1jbGFzcyBOb3RpZmljYXRpb25UeXBlLS0+PGcgaWQ9ImVsZW1fTm90aWZpY2F0aW9uVHlwZSI+PHJlY3QgY29kZUxpbmU9IjIxIiBmaWxsPSIjRjFGMUYxIiBoZWlnaHQ9IjEwMC44MjgxIiBpZD0iTm90aWZpY2F0aW9uVHlwZSIgcng9IjIuNSIgcnk9IjIuNSIgc3R5bGU9InN0cm9rZTojMTgxODE4O3N0cm9rZS13aWR0aDowLjU7IiB3aWR0aD0iMTMyLjM3ODkiIHg9IjI5OC40MiIgeT0iNDkxLjYwOTQiLz48ZWxsaXBzZSBjeD0iMzEzLjQyIiBjeT0iNTA3LjYwOTQiIGZpbGw9IiNFQjkzN0YiIHJ4PSIxMSIgcnk9IjExIiBzdHlsZT0ic3Ryb2tlOiMxODE4MTg7c3Ryb2tlLXdpZHRoOjE7Ii8+PHBhdGggZD0iTTMxMi4yNzk0LDUwOC40MDYzIEwzMTIuMjc5NCw1MTAuOTA2MyBMMzE2LjYwNzUsNTEwLjkwNjMgTDMxNi42MDc1LDUwOS45ODQ0IFEzMTYuNjA3NSw1MDkuMzc1IDMxNi44NDE5LDUwOS4xMDk0IFEzMTcuMDkxOSw1MDguODQzOCAzMTcuNDY2OSw1MDguODQzOCBRMzE3Ljg0MTksNTA4Ljg0MzggMzE4LjA3NjMsNTA5LjEwOTQgUTMxOC4zMTA2LDUwOS4zNzUgMzE4LjMxMDYsNTA5Ljk4NDQgTDMxOC4zMTA2LDUxMi42MDk0IEwzMTAuMzEwNiw1MTIuNjA5NCBRMzA5LjY4NTYsNTEyLjYwOTQgMzA5LjQyLDUxMi4zNzUgUTMwOS4xNyw1MTIuMTQwNiAzMDkuMTcsNTExLjc1IFEzMDkuMTcsNTExLjM3NSAzMDkuNDM1Niw1MTEuMTQwNiBRMzA5LjcwMTMsNTEwLjkwNjMgMzEwLjMxMDYsNTEwLjkwNjMgTDMxMC41NzYzLDUxMC45MDYzIEwzMTAuNTc2Myw1MDQuMjUgTDMxMC4zMTA2LDUwNC4yNSBRMzA5LjY4NTYsNTA0LjI1IDMwOS40Miw1MDQuMDE1NiBRMzA5LjE3LDUwMy43ODEzIDMwOS4xNyw1MDMuMzkwNiBRMzA5LjE3LDUwMy4wMTU2IDMwOS40Miw1MDIuNzgxMyBRMzA5LjY4NTYsNTAyLjU0NjkgMzEwLjMxMDYsNTAyLjU0NjkgTDMxNy45MzU2LDUwMi41NDY5IEwzMTcuOTM1Niw1MDUuMTQwNiBRMzE3LjkzNTYsNTA1Ljc1IDMxNy43MDEzLDUwNi4wMTU2IFEzMTcuNDgyNSw1MDYuMjY1NiAzMTcuMDkxOSw1MDYuMjY1NiBRMzE2LjcxNjksNTA2LjI2NTYgMzE2LjQ4MjUsNTA2LjAxNTYgUTMxNi4yNDgxLDUwNS43NSAzMTYuMjQ4MSw1MDUuMTQwNiBMMzE2LjI0ODEsNTA0LjI1IEwzMTIuMjc5NCw1MDQuMjUgTDMxMi4yNzk0LDUwNi43MDMxIEwzMTMuNzYzOCw1MDYuNzAzMSBRMzEzLjc2MzgsNTA2LjA0NjkgMzEzLjg4ODgsNTA1Ljg1OTQgUTMxNC4xNTQ0LDUwNS40NTMxIDMxNC42MjMxLDUwNS40NTMxIFEzMTQuOTk4MSw1MDUuNDUzMSAzMTUuMjMyNSw1MDUuNzE4OCBRMzE1LjQ2NjksNTA1Ljk2ODggMzE1LjQ2NjksNTA2LjU3ODEgTDMxNS40NjY5LDUwOC41NDY5IFEzMTUuNDY2OSw1MDkuMDkzOCAzMTUuMzQxOSw1MDkuMjgxMyBRMzE1LjA3NjMsNTA5LjY3MTkgMzE0LjYyMzEsNTA5LjY3MTkgUTMxNC4xNTQ0LDUwOS42NzE5IDMxMy44ODg4LDUwOS4yNjU2IFEzMTMuNzYzOCw1MDkuMDc4MSAzMTMuNzYzOCw1MDguNDA2MyBMMzEyLjI3OTQsNTA4LjQwNjMgWiAiIGZpbGw9IiMwMDAwMDAiLz48dGV4dCBmaWxsPSIjMDAwMDAwIiBmb250LWZhbWlseT0ic2Fucy1zZXJpZiIgZm9udC1zaXplPSIxNCIgbGVuZ3RoQWRqdXN0PSJzcGFjaW5nIiB0ZXh0TGVuZ3RoPSIxMDAuMzc4OSIgeD0iMzI3LjQyIiB5PSI1MTMuMzM3OSI+Tm90aWZpY2F0aW9uVHlwZTwvdGV4dD48bGluZSBzdHlsZT0ic3Ryb2tlOiMxODE4MTg7c3Ryb2tlLXdpZHRoOjAuNTsiIHgxPSIyOTkuNDIiIHgyPSI0MjkuNzk4OSIgeTE9IjUyMy42MDk0IiB5Mj0iNTIzLjYwOTQiLz48dGV4dCBmaWxsPSIjMDAwMDAwIiBmb250LWZhbWlseT0ic2Fucy1zZXJpZiIgZm9udC1zaXplPSIxNCIgbGVuZ3RoQWRqdXN0PSJzcGFjaW5nIiB0ZXh0TGVuZ3RoPSI0Mi4wMTM3IiB4PSIzMDQuNDIiIHk9IjU0Mi4xNDI2Ij5FTUFJTDwvdGV4dD48dGV4dCBmaWxsPSIjMDAwMDAwIiBmb250LWZhbWlseT0ic2Fucy1zZXJpZiIgZm9udC1zaXplPSIxNCIgbGVuZ3RoQWRqdXN0PSJzcGFjaW5nIiB0ZXh0TGVuZ3RoPSIzMC4zMzc5IiB4PSIzMDQuNDIiIHk9IjU1OS43NTIiPlNNUzwvdGV4dD48dGV4dCBmaWxsPSIjMDAwMDAwIiBmb250LWZhbWlseT0ic2Fucy1zZXJpZiIgZm9udC1zaXplPSIxNCIgbGVuZ3RoQWRqdXN0PSJzcGFjaW5nIiB0ZXh0TGVuZ3RoPSIzOC44OTY1IiB4PSIzMDQuNDIiIHk9IjU3Ny4zNjEzIj5QVVNIPC90ZXh0PjxsaW5lIHN0eWxlPSJzdHJva2U6IzE4MTgxODtzdHJva2Utd2lkdGg6MC41OyIgeDE9IjI5OS40MiIgeDI9IjQyOS43OTg5IiB5MT0iNTg0LjQzNzUiIHkyPSI1ODQuNDM3NSIvPjwvZz48IS0tY2xhc3MgTm90aWZpY2F0aW9uU3RhdHVzLS0+PGcgaWQ9ImVsZW1fTm90aWZpY2F0aW9uU3RhdHVzIj48cmVjdCBjb2RlTGluZT0iMjciIGZpbGw9IiNGMUYxRjEiIGhlaWdodD0iMTAwLjgyODEiIGlkPSJOb3RpZmljYXRpb25TdGF0dXMiIHJ4PSIyLjUiIHJ5PSIyLjUiIHN0eWxlPSJzdHJva2U6IzE4MTgxODtzdHJva2Utd2lkdGg6MC41OyIgd2lkdGg9IjE0MC45NDQzIiB4PSIxMDcuOTIiIHk9IjI5NS4xMDk0Ii8+PGVsbGlwc2UgY3g9IjEyMi45MiIgY3k9IjMxMS4xMDk0IiBmaWxsPSIjRUI5MzdGIiByeD0iMTEiIHJ5PSIxMSIgc3R5bGU9InN0cm9rZTojMTgxODE4O3N0cm9rZS13aWR0aDoxOyIvPjxwYXRoIGQ9Ik0xMjEuNzc5NCwzMTEuOTA2MyBMMTIxLjc3OTQsMzE0LjQwNjMgTDEyNi4xMDc1LDMxNC40MDYzIEwxMjYuMTA3NSwzMTMuNDg0NCBRMTI2LjEwNzUsMzEyLjg3NSAxMjYuMzQxOSwzMTIuNjA5NCBRMTI2LjU5MTksMzEyLjM0MzggMTI2Ljk2NjksMzEyLjM0MzggUTEyNy4zNDE5LDMxMi4zNDM4IDEyNy41NzYzLDMxMi42MDk0IFExMjcuODEwNiwzMTIuODc1IDEyNy44MTA2LDMxMy40ODQ0IEwxMjcuODEwNiwzMTYuMTA5NCBMMTE5LjgxMDYsMzE2LjEwOTQgUTExOS4xODU2LDMxNi4xMDk0IDExOC45MiwzMTUuODc1IFExMTguNjcsMzE1LjY0MDYgMTE4LjY3LDMxNS4yNSBRMTE4LjY3LDMxNC44NzUgMTE4LjkzNTYsMzE0LjY0MDYgUTExOS4yMDEzLDMxNC40MDYzIDExOS44MTA2LDMxNC40MDYzIEwxMjAuMDc2MywzMTQuNDA2MyBMMTIwLjA3NjMsMzA3Ljc1IEwxMTkuODEwNiwzMDcuNzUgUTExOS4xODU2LDMwNy43NSAxMTguOTIsMzA3LjUxNTYgUTExOC42NywzMDcuMjgxMyAxMTguNjcsMzA2Ljg5MDYgUTExOC42NywzMDYuNTE1NiAxMTguOTIsMzA2LjI4MTMgUTExOS4xODU2LDMwNi4wNDY5IDExOS44MTA2LDMwNi4wNDY5IEwxMjcuNDM1NiwzMDYuMDQ2OSBMMTI3LjQzNTYsMzA4LjY0MDYgUTEyNy40MzU2LDMwOS4yNSAxMjcuMjAxMywzMDkuNTE1NiBRMTI2Ljk4MjUsMzA5Ljc2NTYgMTI2LjU5MTksMzA5Ljc2NTYgUTEyNi4yMTY5LDMwOS43NjU2IDEyNS45ODI1LDMwOS41MTU2IFExMjUuNzQ4MSwzMDkuMjUgMTI1Ljc0ODEsMzA4LjY0MDYgTDEyNS43NDgxLDMwNy43NSBMMTIxLjc3OTQsMzA3Ljc1IEwxMjEuNzc5NCwzMTAuMjAzMSBMMTIzLjI2MzgsMzEwLjIwMzEgUTEyMy4yNjM4LDMwOS41NDY5IDEyMy4zODg4LDMwOS4zNTk0IFExMjMuNjU0NCwzMDguOTUzMSAxMjQuMTIzMSwzMDguOTUzMSBRMTI0LjQ5ODEsMzA4Ljk1MzEgMTI0LjczMjUsMzA5LjIxODggUTEyNC45NjY5LDMwOS40Njg4IDEyNC45NjY5LDMxMC4wNzgxIEwxMjQuOTY2OSwzMTIuMDQ2OSBRMTI0Ljk2NjksMzEyLjU5MzggMTI0Ljg0MTksMzEyLjc4MTMgUTEyNC41NzYzLDMxMy4xNzE5IDEyNC4xMjMxLDMxMy4xNzE5IFExMjMuNjU0NCwzMTMuMTcxOSAxMjMuMzg4OCwzMTIuNzY1NiBRMTIzLjI2MzgsMzEyLjU3ODEgMTIzLjI2MzgsMzExLjkwNjMgTDEyMS43Nzk0LDMxMS45MDYzIFogIiBmaWxsPSIjMDAwMDAwIi8+PHRleHQgZmlsbD0iIzAwMDAwMCIgZm9udC1mYW1pbHk9InNhbnMtc2VyaWYiIGZvbnQtc2l6ZT0iMTQiIGxlbmd0aEFkanVzdD0ic3BhY2luZyIgdGV4dExlbmd0aD0iMTA4Ljk0NDMiIHg9IjEzNi45MiIgeT0iMzE2LjgzNzkiPk5vdGlmaWNhdGlvblN0YXR1czwvdGV4dD48bGluZSBzdHlsZT0ic3Ryb2tlOiMxODE4MTg7c3Ryb2tlLXdpZHRoOjAuNTsiIHgxPSIxMDguOTIiIHgyPSIyNDcuODY0MyIgeTE9IjMyNy4xMDk0IiB5Mj0iMzI3LjEwOTQiLz48dGV4dCBmaWxsPSIjMDAwMDAwIiBmb250LWZhbWlseT0ic2Fucy1zZXJpZiIgZm9udC1zaXplPSIxNCIgbGVuZ3RoQWRqdXN0PSJzcGFjaW5nIiB0ZXh0TGVuZ3RoPSI2My43ODYxIiB4PSIxMTMuOTIiIHk9IjM0NS42NDI2Ij5QRU5ESU5HPC90ZXh0Pjx0ZXh0IGZpbGw9IiMwMDAwMDAiIGZvbnQtZmFtaWx5PSJzYW5zLXNlcmlmIiBmb250LXNpemU9IjE0IiBsZW5ndGhBZGp1c3Q9InNwYWNpbmciIHRleHRMZW5ndGg9IjM3LjMzNzkiIHg9IjExMy45MiIgeT0iMzYzLjI1MiI+U0VOVDwvdGV4dD48dGV4dCBmaWxsPSIjMDAwMDAwIiBmb250LWZhbWlseT0ic2Fucy1zZXJpZiIgZm9udC1zaXplPSIxNCIgbGVuZ3RoQWRqdXN0PSJzcGFjaW5nIiB0ZXh0TGVuZ3RoPSIyOS41NjU0IiB4PSIxMTMuOTIiIHk9IjM4MC44NjEzIj5GQUlMPC90ZXh0PjxsaW5lIHN0eWxlPSJzdHJva2U6IzE4MTgxODtzdHJva2Utd2lkdGg6MC41OyIgeDE9IjEwOC45MiIgeDI9IjI0Ny44NjQzIiB5MT0iMzg3LjkzNzUiIHkyPSIzODcuOTM3NSIvPjwvZz48IS0tY2xhc3MgTm90aWZpY2F0aW9uVGVtcGxhdGUtLT48ZyBpZD0iZWxlbV9Ob3RpZmljYXRpb25UZW1wbGF0ZSI+PHJlY3QgY29kZUxpbmU9IjMzIiBmaWxsPSIjRjFGMUYxIiBoZWlnaHQ9IjEzNi4wNDY5IiBpZD0iTm90aWZpY2F0aW9uVGVtcGxhdGUiIHJ4PSIyLjUiIHJ5PSIyLjUiIHN0eWxlPSJzdHJva2U6IzE4MTgxODtzdHJva2Utd2lkdGg6MC41OyIgd2lkdGg9IjE1OS42MTMzIiB4PSIyODQuNDIiIHk9IjI3Ny42MDk0Ii8+PGVsbGlwc2UgY3g9IjI5OS40MiIgY3k9IjI5My42MDk0IiBmaWxsPSIjQUREMUIyIiByeD0iMTEiIHJ5PSIxMSIgc3R5bGU9InN0cm9rZTojMTgxODE4O3N0cm9rZS13aWR0aDoxOyIvPjxwYXRoIGQ9Ik0zMDIuMTg1NiwyODkuNDg0NCBRMzAyLjM0MTksMjg5LjI2NTYgMzAyLjUyOTQsMjg5LjE1NjMgUTMwMi43MTY5LDI4OS4wNDY5IDMwMi45MzU2LDI4OS4wNDY5IFEzMDMuMzEwNiwyODkuMDQ2OSAzMDMuNTQ1LDI4OS4zMTI1IFEzMDMuNzc5NCwyODkuNTYyNSAzMDMuNzc5NCwyOTAuMTcxOSBMMzAzLjc3OTQsMjkxLjYyNSBRMzAzLjc3OTQsMjkyLjIzNDQgMzAzLjU0NSwyOTIuNSBRMzAzLjMxMDYsMjkyLjc2NTYgMzAyLjkzNTYsMjkyLjc2NTYgUTMwMi41OTE5LDI5Mi43NjU2IDMwMi4zODg4LDI5Mi41NjI1IFEzMDIuMTg1NiwyOTIuMzc1IDMwMi4wNzYzLDI5MS44NTk0IFEzMDIuMDI5NCwyOTEuNSAzMDEuODQxOSwyOTEuMzEyNSBRMzAxLjUxMzgsMjkwLjkzNzUgMzAwLjkwNDQsMjkwLjcxODggUTMwMC4yOTUsMjkwLjUgMjk5LjY3LDI5MC41IFEyOTguOTA0NCwyOTAuNSAyOTguMjYzOCwyOTAuODI4MSBRMjk3LjYzODgsMjkxLjE1NjMgMjk3LjEzODgsMjkxLjkwNjMgUTI5Ni42NTQ0LDI5Mi42NTYzIDI5Ni42NTQ0LDI5My42ODc1IEwyOTYuNjU0NCwyOTQuNzgxMyBRMjk2LjY1NDQsMjk2LjAxNTYgMjk3LjU0NSwyOTYuODQzOCBRMjk4LjQzNTYsMjk3LjY1NjMgMzAwLjAyOTQsMjk3LjY1NjMgUTMwMC45NjY5LDI5Ny42NTYzIDMwMS42MjMxLDI5Ny40MDYzIFEzMDIuMDEzOCwyOTcuMjUgMzAyLjQzNTYsMjk2LjgxMjUgUTMwMi43MDEzLDI5Ni41NDY5IDMwMi44NDE5LDI5Ni40Njg4IFEzMDIuOTk4MSwyOTYuMzkwNiAzMDMuMjAxMywyOTYuMzkwNiBRMzAzLjUyOTQsMjk2LjM5MDYgMzAzLjc3OTQsMjk2LjY1NjMgUTMwNC4wNDUsMjk2LjkwNjMgMzA0LjA0NSwyOTcuMjUgUTMwNC4wNDUsMjk3LjU5MzggMzAzLjcwMTMsMjk4IFEzMDMuMjAxMywyOTguNTc4MSAzMDIuNDA0NCwyOTguOTA2MyBRMzAxLjMyNjMsMjk5LjM1OTQgMzAwLjAyOTQsMjk5LjM1OTQgUTI5OC41MTM4LDI5OS4zNTk0IDI5Ny4zMTA2LDI5OC43MzQ0IFEyOTYuMzI2MywyOTguMjM0NCAyOTUuNjM4OCwyOTcuMTcxOSBRMjk0Ljk1MTMsMjk2LjA5MzggMjk0Ljk1MTMsMjk0LjgxMjUgTDI5NC45NTEzLDI5My42NTYzIFEyOTQuOTUxMywyOTIuMzI4MSAyOTUuNTYwNiwyOTEuMTg3NSBRMjk2LjE4NTYsMjkwLjAzMTMgMjk3LjI3OTQsMjg5LjQyMTkgUTI5OC4zNzMxLDI4OC43OTY5IDI5OS42MDc1LDI4OC43OTY5IFEzMDAuMzQxOSwyODguNzk2OSAzMDAuOTgyNSwyODguOTY4OCBRMzAxLjYzODgsMjg5LjEyNSAzMDIuMTg1NiwyODkuNDg0NCBaICIgZmlsbD0iIzAwMDAwMCIvPjx0ZXh0IGZpbGw9IiMwMDAwMDAiIGZvbnQtZmFtaWx5PSJzYW5zLXNlcmlmIiBmb250LXNpemU9IjE0IiBsZW5ndGhBZGp1c3Q9InNwYWNpbmciIHRleHRMZW5ndGg9IjEyNy42MTMzIiB4PSIzMTMuNDIiIHk9IjI5OS4zMzc5Ij5Ob3RpZmljYXRpb25UZW1wbGF0ZTwvdGV4dD48bGluZSBzdHlsZT0ic3Ryb2tlOiMxODE4MTg7c3Ryb2tlLXdpZHRoOjAuNTsiIHgxPSIyODUuNDIiIHgyPSI0NDMuMDMzMyIgeTE9IjMwOS42MDk0IiB5Mj0iMzA5LjYwOTQiLz48ZWxsaXBzZSBjeD0iMjk1LjQyIiBjeT0iMzIzLjkxNDEiIGZpbGw9InRyYW5zcGFyZW50IiByeD0iMyIgcnk9IjMiIHN0eWxlPSJzdHJva2U6IzAzODA0ODtzdHJva2Utd2lkdGg6MTsiLz48dGV4dCBmaWxsPSIjMDAwMDAwIiBmb250LWZhbWlseT0ic2Fucy1zZXJpZiIgZm9udC1zaXplPSIxNCIgbGVuZ3RoQWRqdXN0PSJzcGFjaW5nIiB0ZXh0TGVuZ3RoPSI0NS45MzA3IiB4PSIzMDQuNDIiIHk9IjMyOC4xNDI2Ij5Mb25nIGlkPC90ZXh0PjxlbGxpcHNlIGN4PSIyOTUuNDIiIGN5PSIzNDEuNTIzNCIgZmlsbD0idHJhbnNwYXJlbnQiIHJ4PSIzIiByeT0iMyIgc3R5bGU9InN0cm9rZTojMDM4MDQ4O3N0cm9rZS13aWR0aDoxOyIvPjx0ZXh0IGZpbGw9IiMwMDAwMDAiIGZvbnQtZmFtaWx5PSJzYW5zLXNlcmlmIiBmb250LXNpemU9IjE0IiBsZW5ndGhBZGp1c3Q9InNwYWNpbmciIHRleHRMZW5ndGg9Ijc1LjQ4MjQiIHg9IjMwNC40MiIgeT0iMzQ1Ljc1MiI+U3RyaW5nIG5hbWU8L3RleHQ+PGVsbGlwc2UgY3g9IjI5NS40MiIgY3k9IjM1OS4xMzI4IiBmaWxsPSJ0cmFuc3BhcmVudCIgcng9IjMiIHJ5PSIzIiBzdHlsZT0ic3Ryb2tlOiMwMzgwNDg7c3Ryb2tlLXdpZHRoOjE7Ii8+PHRleHQgZmlsbD0iIzAwMDAwMCIgZm9udC1mYW1pbHk9InNhbnMtc2VyaWYiIGZvbnQtc2l6ZT0iMTQiIGxlbmd0aEFkanVzdD0ic3BhY2luZyIgdGV4dExlbmd0aD0iODQuODIwMyIgeD0iMzA0LjQyIiB5PSIzNjMuMzYxMyI+U3RyaW5nIHN1YmplY3Q8L3RleHQ+PGVsbGlwc2UgY3g9IjI5NS40MiIgY3k9IjM3Ni43NDIyIiBmaWxsPSJ0cmFuc3BhcmVudCIgcng9IjMiIHJ5PSIzIiBzdHlsZT0ic3Ryb2tlOiMwMzgwNDg7c3Ryb2tlLXdpZHRoOjE7Ii8+PHRleHQgZmlsbD0iIzAwMDAwMCIgZm9udC1mYW1pbHk9InNhbnMtc2VyaWYiIGZvbnQtc2l6ZT0iMTQiIGxlbmd0aEFkanVzdD0ic3BhY2luZyIgdGV4dExlbmd0aD0iMTI2LjA2ODQiIHg9IjMwNC40MiIgeT0iMzgwLjk3MDciPlN0cmluZyB0ZW1wbGF0ZUJvZHk8L3RleHQ+PGVsbGlwc2UgY3g9IjI5NS40MiIgY3k9IjM5NC4zNTE2IiBmaWxsPSJ0cmFuc3BhcmVudCIgcng9IjMiIHJ5PSIzIiBzdHlsZT0ic3Ryb2tlOiMwMzgwNDg7c3Ryb2tlLXdpZHRoOjE7Ii8+PHRleHQgZmlsbD0iIzAwMDAwMCIgZm9udC1mYW1pbHk9InNhbnMtc2VyaWYiIGZvbnQtc2l6ZT0iMTQiIGxlbmd0aEFkanVzdD0ic3BhY2luZyIgdGV4dExlbmd0aD0iMTMwLjczMDUiIHg9IjMwNC40MiIgeT0iMzk4LjU4MDEiPk5vdGlmaWNhdGlvblR5cGUgdHlwZTwvdGV4dD48bGluZSBzdHlsZT0ic3Ryb2tlOiMxODE4MTg7c3Ryb2tlLXdpZHRoOjAuNTsiIHgxPSIyODUuNDIiIHgyPSI0NDMuMDMzMyIgeTE9IjQwNS42NTYzIiB5Mj0iNDA1LjY1NjMiLz48L2c+PCEtLWNsYXNzIE5vdGlmaWNhdGlvbkRUTy0tPjxnIGlkPSJlbGVtX05vdGlmaWNhdGlvbkRUTyI+PHJlY3QgY29kZUxpbmU9IjQyIiBmaWxsPSIjRjFGMUYxIiBoZWlnaHQ9IjExOC40Mzc1IiBpZD0iTm90aWZpY2F0aW9uRFRPIiByeD0iMi41IiByeT0iMi41IiBzdHlsZT0ic3Ryb2tlOiMxODE4MTg7c3Ryb2tlLXdpZHRoOjAuNTsiIHdpZHRoPSIxNTYuNzMwNSIgeD0iNzMzLjkyIiB5PSI2My42MDk0Ii8+PGVsbGlwc2UgY3g9Ijc2MC41ODU3IiBjeT0iNzkuNjA5NCIgZmlsbD0iI0FERDFCMiIgcng9IjExIiByeT0iMTEiIHN0eWxlPSJzdHJva2U6IzE4MTgxODtzdHJva2Utd2lkdGg6MTsiLz48cGF0aCBkPSJNNzYzLjM1MTMsNzUuNDg0NCBRNzYzLjUwNzYsNzUuMjY1NiA3NjMuNjk1MSw3NS4xNTYzIFE3NjMuODgyNiw3NS4wNDY5IDc2NC4xMDEzLDc1LjA0NjkgUTc2NC40NzYzLDc1LjA0NjkgNzY0LjcxMDcsNzUuMzEyNSBRNzY0Ljk0NTEsNzUuNTYyNSA3NjQuOTQ1MSw3Ni4xNzE5IEw3NjQuOTQ1MSw3Ny42MjUgUTc2NC45NDUxLDc4LjIzNDQgNzY0LjcxMDcsNzguNSBRNzY0LjQ3NjMsNzguNzY1NiA3NjQuMTAxMyw3OC43NjU2IFE3NjMuNzU3Niw3OC43NjU2IDc2My41NTQ1LDc4LjU2MjUgUTc2My4zNTEzLDc4LjM3NSA3NjMuMjQyLDc3Ljg1OTQgUTc2My4xOTUxLDc3LjUgNzYzLjAwNzYsNzcuMzEyNSBRNzYyLjY3OTUsNzYuOTM3NSA3NjIuMDcwMSw3Ni43MTg4IFE3NjEuNDYwNyw3Ni41IDc2MC44MzU3LDc2LjUgUTc2MC4wNzAxLDc2LjUgNzU5LjQyOTUsNzYuODI4MSBRNzU4LjgwNDUsNzcuMTU2MyA3NTguMzA0NSw3Ny45MDYzIFE3NTcuODIwMSw3OC42NTYzIDc1Ny44MjAxLDc5LjY4NzUgTDc1Ny44MjAxLDgwLjc4MTMgUTc1Ny44MjAxLDgyLjAxNTYgNzU4LjcxMDcsODIuODQzOCBRNzU5LjYwMTMsODMuNjU2MyA3NjEuMTk1MSw4My42NTYzIFE3NjIuMTMyNiw4My42NTYzIDc2Mi43ODg4LDgzLjQwNjMgUTc2My4xNzk1LDgzLjI1IDc2My42MDEzLDgyLjgxMjUgUTc2My44NjcsODIuNTQ2OSA3NjQuMDA3Niw4Mi40Njg4IFE3NjQuMTYzOCw4Mi4zOTA2IDc2NC4zNjcsODIuMzkwNiBRNzY0LjY5NTEsODIuMzkwNiA3NjQuOTQ1MSw4Mi42NTYzIFE3NjUuMjEwNyw4Mi45MDYzIDc2NS4yMTA3LDgzLjI1IFE3NjUuMjEwNyw4My41OTM4IDc2NC44NjcsODQgUTc2NC4zNjcsODQuNTc4MSA3NjMuNTcwMSw4NC45MDYzIFE3NjIuNDkyLDg1LjM1OTQgNzYxLjE5NTEsODUuMzU5NCBRNzU5LjY3OTUsODUuMzU5NCA3NTguNDc2Myw4NC43MzQ0IFE3NTcuNDkyLDg0LjIzNDQgNzU2LjgwNDUsODMuMTcxOSBRNzU2LjExNyw4Mi4wOTM4IDc1Ni4xMTcsODAuODEyNSBMNzU2LjExNyw3OS42NTYzIFE3NTYuMTE3LDc4LjMyODEgNzU2LjcyNjMsNzcuMTg3NSBRNzU3LjM1MTMsNzYuMDMxMyA3NTguNDQ1MSw3NS40MjE5IFE3NTkuNTM4OCw3NC43OTY5IDc2MC43NzMyLDc0Ljc5NjkgUTc2MS41MDc2LDc0Ljc5NjkgNzYyLjE0ODIsNzQuOTY4OCBRNzYyLjgwNDUsNzUuMTI1IDc2My4zNTEzLDc1LjQ4NDQgWiAiIGZpbGw9IiMwMDAwMDAiLz48dGV4dCBmaWxsPSIjMDAwMDAwIiBmb250LWZhbWlseT0ic2Fucy1zZXJpZiIgZm9udC1zaXplPSIxNCIgbGVuZ3RoQWRqdXN0PSJzcGFjaW5nIiB0ZXh0TGVuZ3RoPSI5OC44MDY2IiB4PSI3NzcuMTc4MSIgeT0iODUuMzM3OSI+Tm90aWZpY2F0aW9uRFRPPC90ZXh0PjxsaW5lIHN0eWxlPSJzdHJva2U6IzE4MTgxODtzdHJva2Utd2lkdGg6MC41OyIgeDE9IjczNC45MiIgeDI9Ijg4OS42NTA1IiB5MT0iOTUuNjA5NCIgeTI9Ijk1LjYwOTQiLz48ZWxsaXBzZSBjeD0iNzQ0LjkyIiBjeT0iMTA5LjkxNDEiIGZpbGw9InRyYW5zcGFyZW50IiByeD0iMyIgcnk9IjMiIHN0eWxlPSJzdHJva2U6IzAzODA0ODtzdHJva2Utd2lkdGg6MTsiLz48dGV4dCBmaWxsPSIjMDAwMDAwIiBmb250LWZhbWlseT0ic2Fucy1zZXJpZiIgZm9udC1zaXplPSIxNCIgbGVuZ3RoQWRqdXN0PSJzcGFjaW5nIiB0ZXh0TGVuZ3RoPSI5OS42MjciIHg9Ijc1My45MiIgeT0iMTE0LjE0MjYiPkxvbmcgcmVjaXBpZW50SWQ8L3RleHQ+PGVsbGlwc2UgY3g9Ijc0NC45MiIgY3k9IjEyNy41MjM0IiBmaWxsPSJ0cmFuc3BhcmVudCIgcng9IjMiIHJ5PSIzIiBzdHlsZT0ic3Ryb2tlOiMwMzgwNDg7c3Ryb2tlLXdpZHRoOjE7Ii8+PHRleHQgZmlsbD0iIzAwMDAwMCIgZm9udC1mYW1pbHk9InNhbnMtc2VyaWYiIGZvbnQtc2l6ZT0iMTQiIGxlbmd0aEFkanVzdD0ic3BhY2luZyIgdGV4dExlbmd0aD0iOTcuMjY4NiIgeD0iNzUzLjkyIiB5PSIxMzEuNzUyIj5TdHJpbmcgbWVzc2FnZTwvdGV4dD48ZWxsaXBzZSBjeD0iNzQ0LjkyIiBjeT0iMTQ1LjEzMjgiIGZpbGw9InRyYW5zcGFyZW50IiByeD0iMyIgcnk9IjMiIHN0eWxlPSJzdHJva2U6IzAzODA0ODtzdHJva2Utd2lkdGg6MTsiLz48dGV4dCBmaWxsPSIjMDAwMDAwIiBmb250LWZhbWlseT0ic2Fucy1zZXJpZiIgZm9udC1zaXplPSIxNCIgbGVuZ3RoQWRqdXN0PSJzcGFjaW5nIiB0ZXh0TGVuZ3RoPSIxMzAuNzMwNSIgeD0iNzUzLjkyIiB5PSIxNDkuMzYxMyI+Tm90aWZpY2F0aW9uVHlwZSB0eXBlPC90ZXh0PjxlbGxpcHNlIGN4PSI3NDQuOTIiIGN5PSIxNjIuNzQyMiIgZmlsbD0idHJhbnNwYXJlbnQiIHJ4PSIzIiByeT0iMyIgc3R5bGU9InN0cm9rZTojMDM4MDQ4O3N0cm9rZS13aWR0aDoxOyIvPjx0ZXh0IGZpbGw9IiMwMDAwMDAiIGZvbnQtZmFtaWx5PSJzYW5zLXNlcmlmIiBmb250LXNpemU9IjE0IiBsZW5ndGhBZGp1c3Q9InNwYWNpbmciIHRleHRMZW5ndGg9IjEwMC40MDYzIiB4PSI3NTMuOTIiIHk9IjE2Ni45NzA3Ij5Mb25nIHRlbXBsYXRlSWQ8L3RleHQ+PGxpbmUgc3R5bGU9InN0cm9rZTojMTgxODE4O3N0cm9rZS13aWR0aDowLjU7IiB4MT0iNzM0LjkyIiB4Mj0iODg5LjY1MDUiIHkxPSIxNzQuMDQ2OSIgeTI9IjE3NC4wNDY5Ii8+PC9nPjwhLS1jbGFzcyBOb3RpZmljYXRpb25NYXBwZXItLT48ZyBpZD0iZWxlbV9Ob3RpZmljYXRpb25NYXBwZXIiPjxyZWN0IGNvZGVMaW5lPSI1MCIgZmlsbD0iI0YxRjFGMSIgaGVpZ2h0PSI4My4yMTg4IiBpZD0iTm90aWZpY2F0aW9uTWFwcGVyIiByeD0iMi41IiByeT0iMi41IiBzdHlsZT0ic3Ryb2tlOiMxODE4MTg7c3Ryb2tlLXdpZHRoOjAuNTsiIHdpZHRoPSIzMTEuNTU3NiIgeD0iNDc5LjQyIiB5PSIzMDQuMTA5NCIvPjxlbGxpcHNlIGN4PSI1NzIuNTg3IiBjeT0iMzIwLjEwOTQiIGZpbGw9IiNBREQxQjIiIHJ4PSIxMSIgcnk9IjExIiBzdHlsZT0ic3Ryb2tlOiMxODE4MTg7c3Ryb2tlLXdpZHRoOjE7Ii8+PHBhdGggZD0iTTU3NS4zNTI2LDMxNS45ODQ0IFE1NzUuNTA4OSwzMTUuNzY1NiA1NzUuNjk2NCwzMTUuNjU2MyBRNTc1Ljg4MzksMzE1LjU0NjkgNTc2LjEwMjYsMzE1LjU0NjkgUTU3Ni40Nzc2LDMxNS41NDY5IDU3Ni43MTIsMzE1LjgxMjUgUTU3Ni45NDY0LDMxNi4wNjI1IDU3Ni45NDY0LDMxNi42NzE5IEw1NzYuOTQ2NCwzMTguMTI1IFE1NzYuOTQ2NCwzMTguNzM0NCA1NzYuNzEyLDMxOSBRNTc2LjQ3NzYsMzE5LjI2NTYgNTc2LjEwMjYsMzE5LjI2NTYgUTU3NS43NTg5LDMxOS4yNjU2IDU3NS41NTU3LDMxOS4wNjI1IFE1NzUuMzUyNiwzMTguODc1IDU3NS4yNDMyLDMxOC4zNTk0IFE1NzUuMTk2NCwzMTggNTc1LjAwODksMzE3LjgxMjUgUTU3NC42ODA3LDMxNy40Mzc1IDU3NC4wNzE0LDMxNy4yMTg4IFE1NzMuNDYyLDMxNyA1NzIuODM3LDMxNyBRNTcyLjA3MTQsMzE3IDU3MS40MzA3LDMxNy4zMjgxIFE1NzAuODA1NywzMTcuNjU2MyA1NzAuMzA1NywzMTguNDA2MyBRNTY5LjgyMTQsMzE5LjE1NjMgNTY5LjgyMTQsMzIwLjE4NzUgTDU2OS44MjE0LDMyMS4yODEzIFE1NjkuODIxNCwzMjIuNTE1NiA1NzAuNzEyLDMyMy4zNDM4IFE1NzEuNjAyNiwzMjQuMTU2MyA1NzMuMTk2NCwzMjQuMTU2MyBRNTc0LjEzMzksMzI0LjE1NjMgNTc0Ljc5MDEsMzIzLjkwNjMgUTU3NS4xODA3LDMyMy43NSA1NzUuNjAyNiwzMjMuMzEyNSBRNTc1Ljg2ODIsMzIzLjA0NjkgNTc2LjAwODksMzIyLjk2ODggUTU3Ni4xNjUxLDMyMi44OTA2IDU3Ni4zNjgyLDMyMi44OTA2IFE1NzYuNjk2NCwzMjIuODkwNiA1NzYuOTQ2NCwzMjMuMTU2MyBRNTc3LjIxMiwzMjMuNDA2MyA1NzcuMjEyLDMyMy43NSBRNTc3LjIxMiwzMjQuMDkzOCA1NzYuODY4MiwzMjQuNSBRNTc2LjM2ODIsMzI1LjA3ODEgNTc1LjU3MTQsMzI1LjQwNjMgUTU3NC40OTMyLDMyNS44NTk0IDU3My4xOTY0LDMyNS44NTk0IFE1NzEuNjgwNywzMjUuODU5NCA1NzAuNDc3NiwzMjUuMjM0NCBRNTY5LjQ5MzIsMzI0LjczNDQgNTY4LjgwNTcsMzIzLjY3MTkgUTU2OC4xMTgyLDMyMi41OTM4IDU2OC4xMTgyLDMyMS4zMTI1IEw1NjguMTE4MiwzMjAuMTU2MyBRNTY4LjExODIsMzE4LjgyODEgNTY4LjcyNzYsMzE3LjY4NzUgUTU2OS4zNTI2LDMxNi41MzEzIDU3MC40NDY0LDMxNS45MjE5IFE1NzEuNTQwMSwzMTUuMjk2OSA1NzIuNzc0NSwzMTUuMjk2OSBRNTczLjUwODksMzE1LjI5NjkgNTc0LjE0OTUsMzE1LjQ2ODggUTU3NC44MDU3LDMxNS42MjUgNTc1LjM1MjYsMzE1Ljk4NDQgWiAiIGZpbGw9IiMwMDAwMDAiLz48dGV4dCBmaWxsPSIjMDAwMDAwIiBmb250LWZhbWlseT0ic2Fucy1zZXJpZiIgZm9udC1zaXplPSIxNCIgbGVuZ3RoQWRqdXN0PSJzcGFjaW5nIiB0ZXh0TGVuZ3RoPSIxMTYuNzIzNiIgeD0iNTkzLjA4NyIgeT0iMzI1LjgzNzkiPk5vdGlmaWNhdGlvbk1hcHBlcjwvdGV4dD48bGluZSBzdHlsZT0ic3Ryb2tlOiMxODE4MTg7c3Ryb2tlLXdpZHRoOjAuNTsiIHgxPSI0ODAuNDIiIHgyPSI3ODkuOTc3NiIgeTE9IjMzNi4xMDk0IiB5Mj0iMzM2LjEwOTQiLz48bGluZSBzdHlsZT0ic3Ryb2tlOiMxODE4MTg7c3Ryb2tlLXdpZHRoOjAuNTsiIHgxPSI0ODAuNDIiIHgyPSI3ODkuOTc3NiIgeTE9IjM0NC4xMDk0IiB5Mj0iMzQ0LjEwOTQiLz48ZWxsaXBzZSBjeD0iNDkwLjQyIiBjeT0iMzU4LjQxNDEiIGZpbGw9IiM4NEJFODQiIHJ4PSIzIiByeT0iMyIgc3R5bGU9InN0cm9rZTojMDM4MDQ4O3N0cm9rZS13aWR0aDoxOyIvPjx0ZXh0IGZpbGw9IiMwMDAwMDAiIGZvbnQtZmFtaWx5PSJzYW5zLXNlcmlmIiBmb250LXNpemU9IjE0IiBsZW5ndGhBZGp1c3Q9InNwYWNpbmciIHRleHRMZW5ndGg9IjI1MS4zMTY0IiB4PSI0OTkuNDIiIHk9IjM2Mi42NDI2Ij5Ob3RpZmljYXRpb24gdG9FbnRpdHkoTm90aWZpY2F0aW9uRFRPIGR0byk8L3RleHQ+PGVsbGlwc2UgY3g9IjQ5MC40MiIgY3k9IjM3Ni4wMjM0IiBmaWxsPSIjODRCRTg0IiByeD0iMyIgcnk9IjMiIHN0eWxlPSJzdHJva2U6IzAzODA0ODtzdHJva2Utd2lkdGg6MTsiLz48dGV4dCBmaWxsPSIjMDAwMDAwIiBmb250LWZhbWlseT0ic2Fucy1zZXJpZiIgZm9udC1zaXplPSIxNCIgbGVuZ3RoQWRqdXN0PSJzcGFjaW5nIiB0ZXh0TGVuZ3RoPSIyODUuNTU3NiIgeD0iNDk5LjQyIiB5PSIzODAuMjUyIj5Ob3RpZmljYXRpb25EVE8gdG9EdG8oTm90aWZpY2F0aW9uIG5vdGlmaWNhdGlvbik8L3RleHQ+PC9nPjwhLS1jbGFzcyBOb3RpZmljYXRpb25TZXJ2aWNlLS0+PGcgaWQ9ImVsZW1fTm90aWZpY2F0aW9uU2VydmljZSI+PHJlY3QgY29kZUxpbmU9IjU2IiBmaWxsPSIjRjFGMUYxIiBoZWlnaHQ9IjExOC40Mzc1IiBpZD0iTm90aWZpY2F0aW9uU2VydmljZSIgcng9IjIuNSIgcnk9IjIuNSIgc3R5bGU9InN0cm9rZTojMTgxODE4O3N0cm9rZS13aWR0aDowLjU7IiB3aWR0aD0iMzcxLjUwODgiIHg9IjkyMi40MiIgeT0iMjg2LjYwOTQiLz48ZWxsaXBzZSBjeD0iMTA0NS45NTU2IiBjeT0iMzAyLjYwOTQiIGZpbGw9IiNCNEE3RTUiIHJ4PSIxMSIgcnk9IjExIiBzdHlsZT0ic3Ryb2tlOiMxODE4MTg7c3Ryb2tlLXdpZHRoOjE7Ii8+PHBhdGggZD0iTTEwNDYuOTA4OCwyOTkuMjUgTDEwNDYuOTA4OCwzMDUuOTA2MyBMMTA0OC42Mjc1LDMwNS45MDYzIFExMDQ5LjIzNjksMzA1LjkwNjMgMTA0OS41MDI1LDMwNi4xNDA2IFExMDQ5Ljc2ODEsMzA2LjM3NSAxMDQ5Ljc2ODEsMzA2Ljc2NTYgUTEwNDkuNzY4MSwzMDcuMTQwNiAxMDQ5LjUwMjUsMzA3LjM3NSBRMTA0OS4yMzY5LDMwNy42MDk0IDEwNDguNjI3NSwzMDcuNjA5NCBMMTA0My40ODY5LDMwNy42MDk0IFExMDQyLjg3NzUsMzA3LjYwOTQgMTA0Mi42MTE5LDMwNy4zNzUgUTEwNDIuMzQ2MywzMDcuMTQwNiAxMDQyLjM0NjMsMzA2Ljc1IFExMDQyLjM0NjMsMzA2LjM3NSAxMDQyLjYxMTksMzA2LjE0MDYgUTEwNDIuODc3NSwzMDUuOTA2MyAxMDQzLjQ4NjksMzA1LjkwNjMgTDEwNDUuMjA1NiwzMDUuOTA2MyBMMTA0NS4yMDU2LDI5OS4yNSBMMTA0My40ODY5LDI5OS4yNSBRMTA0Mi44Nzc1LDI5OS4yNSAxMDQyLjYxMTksMjk5LjAxNTYgUTEwNDIuMzQ2MywyOTguNzgxMyAxMDQyLjM0NjMsMjk4LjM5MDYgUTEwNDIuMzQ2MywyOTguMDE1NiAxMDQyLjYxMTksMjk3Ljc4MTMgUTEwNDIuODc3NSwyOTcuNTQ2OSAxMDQzLjQ4NjksMjk3LjU0NjkgTDEwNDguNjI3NSwyOTcuNTQ2OSBRMTA0OS4yMzY5LDI5Ny41NDY5IDEwNDkuNTAyNSwyOTcuNzgxMyBRMTA0OS43NjgxLDI5OC4wMTU2IDEwNDkuNzY4MSwyOTguMzkwNiBRMTA0OS43NjgxLDI5OC43ODEzIDEwNDkuNTAyNSwyOTkuMDE1NiBRMTA0OS4yMzY5LDI5OS4yNSAxMDQ4LjYyNzUsMjk5LjI1IEwxMDQ2LjkwODgsMjk5LjI1IFogIiBmaWxsPSIjMDAwMDAwIi8+PHRleHQgZmlsbD0iIzAwMDAwMCIgZm9udC1mYW1pbHk9InNhbnMtc2VyaWYiIGZvbnQtc2l6ZT0iMTQiIGZvbnQtc3R5bGU9Iml0YWxpYyIgbGVuZ3RoQWRqdXN0PSJzcGFjaW5nIiB0ZXh0TGVuZ3RoPSIxMTUuOTM3NSIgeD0iMTA2Ni40NTU2IiB5PSIzMDguMzM3OSI+Tm90aWZpY2F0aW9uU2VydmljZTwvdGV4dD48bGluZSBzdHlsZT0ic3Ryb2tlOiMxODE4MTg7c3Ryb2tlLXdpZHRoOjAuNTsiIHgxPSI5MjMuNDIiIHgyPSIxMjkyLjkyODgiIHkxPSIzMTguNjA5NCIgeTI9IjMxOC42MDk0Ii8+PGxpbmUgc3R5bGU9InN0cm9rZTojMTgxODE4O3N0cm9rZS13aWR0aDowLjU7IiB4MT0iOTIzLjQyIiB4Mj0iMTI5Mi45Mjg4IiB5MT0iMzI2LjYwOTQiIHkyPSIzMjYuNjA5NCIvPjxlbGxpcHNlIGN4PSI5MzMuNDIiIGN5PSIzNDAuOTE0MSIgZmlsbD0iIzg0QkU4NCIgcng9IjMiIHJ5PSIzIiBzdHlsZT0ic3Ryb2tlOiMwMzgwNDg7c3Ryb2tlLXdpZHRoOjE7Ii8+PHRleHQgZmlsbD0iIzAwMDAwMCIgZm9udC1mYW1pbHk9InNhbnMtc2VyaWYiIGZvbnQtc2l6ZT0iMTQiIGxlbmd0aEFkanVzdD0ic3BhY2luZyIgdGV4dExlbmd0aD0iMzM3LjY4ODUiIHg9Ijk0Mi40MiIgeT0iMzQ1LjE0MjYiPnZvaWQgc2VuZE5vdGlmaWNhdGlvbihOb3RpZmljYXRpb25EVE8gbm90aWZpY2F0aW9uRFRPKTwvdGV4dD48ZWxsaXBzZSBjeD0iOTMzLjQyIiBjeT0iMzU4LjUyMzQiIGZpbGw9IiM4NEJFODQiIHJ4PSIzIiByeT0iMyIgc3R5bGU9InN0cm9rZTojMDM4MDQ4O3N0cm9rZS13aWR0aDoxOyIvPjx0ZXh0IGZpbGw9IiMwMDAwMDAiIGZvbnQtZmFtaWx5PSJzYW5zLXNlcmlmIiBmb250LXNpemU9IjE0IiBsZW5ndGhBZGp1c3Q9InNwYWNpbmciIHRleHRMZW5ndGg9IjM0NS41MDg4IiB4PSI5NDIuNDIiIHk9IjM2Mi43NTIiPkxpc3QmbHQ7Tm90aWZpY2F0aW9uJmd0OyBnZXRVc2VyTm90aWZpY2F0aW9ucyhMb25nIHJlY2lwaWVudElkKTwvdGV4dD48ZWxsaXBzZSBjeD0iOTMzLjQyIiBjeT0iMzc2LjEzMjgiIGZpbGw9IiM4NEJFODQiIHJ4PSIzIiByeT0iMyIgc3R5bGU9InN0cm9rZTojMDM4MDQ4O3N0cm9rZS13aWR0aDoxOyIvPjx0ZXh0IGZpbGw9IiMwMDAwMDAiIGZvbnQtZmFtaWx5PSJzYW5zLXNlcmlmIiBmb250LXNpemU9IjE0IiBsZW5ndGhBZGp1c3Q9InNwYWNpbmciIHRleHRMZW5ndGg9IjIyOC43ODUyIiB4PSI5NDIuNDIiIHk9IjM4MC4zNjEzIj52b2lkIG1hcmtBc1NlbnQoTG9uZyBub3RpZmljYXRpb25JZCk8L3RleHQ+PGVsbGlwc2UgY3g9IjkzMy40MiIgY3k9IjM5My43NDIyIiBmaWxsPSIjODRCRTg0IiByeD0iMyIgcnk9IjMiIHN0eWxlPSJzdHJva2U6IzAzODA0ODtzdHJva2Utd2lkdGg6MTsiLz48dGV4dCBmaWxsPSIjMDAwMDAwIiBmb250LWZhbWlseT0ic2Fucy1zZXJpZiIgZm9udC1zaXplPSIxNCIgbGVuZ3RoQWRqdXN0PSJzcGFjaW5nIiB0ZXh0TGVuZ3RoPSIzMjEuMzY0MyIgeD0iOTQyLjQyIiB5PSIzOTcuOTcwNyI+dm9pZCBjcmVhdGVUZW1wbGF0ZShOb3RpZmljYXRpb25UZW1wbGF0ZSB0ZW1wbGF0ZSk8L3RleHQ+PC9nPjwhLS1jbGFzcyBOb3RpZmljYXRpb25TZXJ2aWNlSW1wbC0tPjxnIGlkPSJlbGVtX05vdGlmaWNhdGlvblNlcnZpY2VJbXBsIj48cmVjdCBjb2RlTGluZT0iNjQiIGZpbGw9IiNGMUYxRjEiIGhlaWdodD0iMTE4LjQzNzUiIGlkPSJOb3RpZmljYXRpb25TZXJ2aWNlSW1wbCIgcng9IjIuNSIgcnk9IjIuNSIgc3R5bGU9InN0cm9rZTojMTgxODE4O3N0cm9rZS13aWR0aDowLjU7IiB3aWR0aD0iMzcxLjUwODgiIHg9IjE0ODYuNDIiIHk9IjYzLjYwOTQiLz48ZWxsaXBzZSBjeD0iMTU5Ni43MzE1IiBjeT0iNzkuNjA5NCIgZmlsbD0iI0FERDFCMiIgcng9IjExIiByeT0iMTEiIHN0eWxlPSJzdHJva2U6IzE4MTgxODtzdHJva2Utd2lkdGg6MTsiLz48cGF0aCBkPSJNMTU5OS40OTcxLDc1LjQ4NDQgUTE1OTkuNjUzNCw3NS4yNjU2IDE1OTkuODQwOSw3NS4xNTYzIFExNjAwLjAyODQsNzUuMDQ2OSAxNjAwLjI0NzEsNzUuMDQ2OSBRMTYwMC42MjIxLDc1LjA0NjkgMTYwMC44NTY1LDc1LjMxMjUgUTE2MDEuMDkwOSw3NS41NjI1IDE2MDEuMDkwOSw3Ni4xNzE5IEwxNjAxLjA5MDksNzcuNjI1IFExNjAxLjA5MDksNzguMjM0NCAxNjAwLjg1NjUsNzguNSBRMTYwMC42MjIxLDc4Ljc2NTYgMTYwMC4yNDcxLDc4Ljc2NTYgUTE1OTkuOTAzNCw3OC43NjU2IDE1OTkuNzAwMyw3OC41NjI1IFExNTk5LjQ5NzEsNzguMzc1IDE1OTkuMzg3OCw3Ny44NTk0IFExNTk5LjM0MDksNzcuNSAxNTk5LjE1MzQsNzcuMzEyNSBRMTU5OC44MjUzLDc2LjkzNzUgMTU5OC4yMTU5LDc2LjcxODggUTE1OTcuNjA2NSw3Ni41IDE1OTYuOTgxNSw3Ni41IFExNTk2LjIxNTksNzYuNSAxNTk1LjU3NTMsNzYuODI4MSBRMTU5NC45NTAzLDc3LjE1NjMgMTU5NC40NTAzLDc3LjkwNjMgUTE1OTMuOTY1OSw3OC42NTYzIDE1OTMuOTY1OSw3OS42ODc1IEwxNTkzLjk2NTksODAuNzgxMyBRMTU5My45NjU5LDgyLjAxNTYgMTU5NC44NTY1LDgyLjg0MzggUTE1OTUuNzQ3MSw4My42NTYzIDE1OTcuMzQwOSw4My42NTYzIFExNTk4LjI3ODQsODMuNjU2MyAxNTk4LjkzNDYsODMuNDA2MyBRMTU5OS4zMjUzLDgzLjI1IDE1OTkuNzQ3MSw4Mi44MTI1IFExNjAwLjAxMjgsODIuNTQ2OSAxNjAwLjE1MzQsODIuNDY4OCBRMTYwMC4zMDk2LDgyLjM5MDYgMTYwMC41MTI4LDgyLjM5MDYgUTE2MDAuODQwOSw4Mi4zOTA2IDE2MDEuMDkwOSw4Mi42NTYzIFExNjAxLjM1NjUsODIuOTA2MyAxNjAxLjM1NjUsODMuMjUgUTE2MDEuMzU2NSw4My41OTM4IDE2MDEuMDEyOCw4NCBRMTYwMC41MTI4LDg0LjU3ODEgMTU5OS43MTU5LDg0LjkwNjMgUTE1OTguNjM3OCw4NS4zNTk0IDE1OTcuMzQwOSw4NS4zNTk0IFExNTk1LjgyNTMsODUuMzU5NCAxNTk0LjYyMjEsODQuNzM0NCBRMTU5My42Mzc4LDg0LjIzNDQgMTU5Mi45NTAzLDgzLjE3MTkgUTE1OTIuMjYyOCw4Mi4wOTM4IDE1OTIuMjYyOCw4MC44MTI1IEwxNTkyLjI2MjgsNzkuNjU2MyBRMTU5Mi4yNjI4LDc4LjMyODEgMTU5Mi44NzIxLDc3LjE4NzUgUTE1OTMuNDk3MSw3Ni4wMzEzIDE1OTQuNTkwOSw3NS40MjE5IFExNTk1LjY4NDYsNzQuNzk2OSAxNTk2LjkxOSw3NC43OTY5IFExNTk3LjY1MzQsNzQuNzk2OSAxNTk4LjI5NCw3NC45Njg4IFExNTk4Ljk1MDMsNzUuMTI1IDE1OTkuNDk3MSw3NS40ODQ0IFogIiBmaWxsPSIjMDAwMDAwIi8+PHRleHQgZmlsbD0iIzAwMDAwMCIgZm9udC1mYW1pbHk9InNhbnMtc2VyaWYiIGZvbnQtc2l6ZT0iMTQiIGxlbmd0aEFkanVzdD0ic3BhY2luZyIgdGV4dExlbmd0aD0iMTQyLjM4NTciIHg9IjE2MTcuMjMxNSIgeT0iODUuMzM3OSI+Tm90aWZpY2F0aW9uU2VydmljZUltcGw8L3RleHQ+PGxpbmUgc3R5bGU9InN0cm9rZTojMTgxODE4O3N0cm9rZS13aWR0aDowLjU7IiB4MT0iMTQ4Ny40MiIgeDI9IjE4NTYuOTI4OCIgeTE9Ijk1LjYwOTQiIHkyPSI5NS42MDk0Ii8+PGxpbmUgc3R5bGU9InN0cm9rZTojMTgxODE4O3N0cm9rZS13aWR0aDowLjU7IiB4MT0iMTQ4Ny40MiIgeDI9IjE4NTYuOTI4OCIgeTE9IjEwMy42MDk0IiB5Mj0iMTAzLjYwOTQiLz48ZWxsaXBzZSBjeD0iMTQ5Ny40MiIgY3k9IjExNy45MTQxIiBmaWxsPSIjODRCRTg0IiByeD0iMyIgcnk9IjMiIHN0eWxlPSJzdHJva2U6IzAzODA0ODtzdHJva2Utd2lkdGg6MTsiLz48dGV4dCBmaWxsPSIjMDAwMDAwIiBmb250LWZhbWlseT0ic2Fucy1zZXJpZiIgZm9udC1zaXplPSIxNCIgbGVuZ3RoQWRqdXN0PSJzcGFjaW5nIiB0ZXh0TGVuZ3RoPSIzMzcuNjg4NSIgeD0iMTUwNi40MiIgeT0iMTIyLjE0MjYiPnZvaWQgc2VuZE5vdGlmaWNhdGlvbihOb3RpZmljYXRpb25EVE8gbm90aWZpY2F0aW9uRFRPKTwvdGV4dD48ZWxsaXBzZSBjeD0iMTQ5Ny40MiIgY3k9IjEzNS41MjM0IiBmaWxsPSIjODRCRTg0IiByeD0iMyIgcnk9IjMiIHN0eWxlPSJzdHJva2U6IzAzODA0ODtzdHJva2Utd2lkdGg6MTsiLz48dGV4dCBmaWxsPSIjMDAwMDAwIiBmb250LWZhbWlseT0ic2Fucy1zZXJpZiIgZm9udC1zaXplPSIxNCIgbGVuZ3RoQWRqdXN0PSJzcGFjaW5nIiB0ZXh0TGVuZ3RoPSIzNDUuNTA4OCIgeD0iMTUwNi40MiIgeT0iMTM5Ljc1MiI+TGlzdCZsdDtOb3RpZmljYXRpb24mZ3Q7IGdldFVzZXJOb3RpZmljYXRpb25zKExvbmcgcmVjaXBpZW50SWQpPC90ZXh0PjxlbGxpcHNlIGN4PSIxNDk3LjQyIiBjeT0iMTUzLjEzMjgiIGZpbGw9IiM4NEJFODQiIHJ4PSIzIiByeT0iMyIgc3R5bGU9InN0cm9rZTojMDM4MDQ4O3N0cm9rZS13aWR0aDoxOyIvPjx0ZXh0IGZpbGw9IiMwMDAwMDAiIGZvbnQtZmFtaWx5PSJzYW5zLXNlcmlmIiBmb250LXNpemU9IjE0IiBsZW5ndGhBZGp1c3Q9InNwYWNpbmciIHRleHRMZW5ndGg9IjIyOC43ODUyIiB4PSIxNTA2LjQyIiB5PSIxNTcuMzYxMyI+dm9pZCBtYXJrQXNTZW50KExvbmcgbm90aWZpY2F0aW9uSWQpPC90ZXh0PjxlbGxpcHNlIGN4PSIxNDk3LjQyIiBjeT0iMTcwLjc0MjIiIGZpbGw9IiM4NEJFODQiIHJ4PSIzIiByeT0iMyIgc3R5bGU9InN0cm9rZTojMDM4MDQ4O3N0cm9rZS13aWR0aDoxOyIvPjx0ZXh0IGZpbGw9IiMwMDAwMDAiIGZvbnQtZmFtaWx5PSJzYW5zLXNlcmlmIiBmb250LXNpemU9IjE0IiBsZW5ndGhBZGp1c3Q9InNwYWNpbmciIHRleHRMZW5ndGg9IjMyMS4zNjQzIiB4PSIxNTA2LjQyIiB5PSIxNzQuOTcwNyI+dm9pZCBjcmVhdGVUZW1wbGF0ZShOb3RpZmljYXRpb25UZW1wbGF0ZSB0ZW1wbGF0ZSk8L3RleHQ+PC9nPjwhLS1jbGFzcyBOb3RpZmljYXRpb25SZXBvc2l0b3J5LS0+PGcgaWQ9ImVsZW1fTm90aWZpY2F0aW9uUmVwb3NpdG9yeSI+PHJlY3QgY29kZUxpbmU9IjcyIiBmaWxsPSIjRjFGMUYxIiBoZWlnaHQ9IjEwMC44MjgxIiBpZD0iTm90aWZpY2F0aW9uUmVwb3NpdG9yeSIgcng9IjIuNSIgcnk9IjIuNSIgc3R5bGU9InN0cm9rZTojMTgxODE4O3N0cm9rZS13aWR0aDowLjU7IiB3aWR0aD0iMzU1LjE4NDYiIHg9IjEzMjkuOTIiIHk9IjI5NS4xMDk0Ii8+PGVsbGlwc2UgY3g9IjE0MzUuMTc2MyIgY3k9IjMxMS4xMDk0IiBmaWxsPSIjQUREMUIyIiByeD0iMTEiIHJ5PSIxMSIgc3R5bGU9InN0cm9rZTojMTgxODE4O3N0cm9rZS13aWR0aDoxOyIvPjxwYXRoIGQ9Ik0xNDM3Ljk0MiwzMDYuOTg0NCBRMTQzOC4wOTgyLDMwNi43NjU2IDE0MzguMjg1NywzMDYuNjU2MyBRMTQzOC40NzMyLDMwNi41NDY5IDE0MzguNjkyLDMwNi41NDY5IFExNDM5LjA2NywzMDYuNTQ2OSAxNDM5LjMwMTMsMzA2LjgxMjUgUTE0MzkuNTM1NywzMDcuMDYyNSAxNDM5LjUzNTcsMzA3LjY3MTkgTDE0MzkuNTM1NywzMDkuMTI1IFExNDM5LjUzNTcsMzA5LjczNDQgMTQzOS4zMDEzLDMxMCBRMTQzOS4wNjcsMzEwLjI2NTYgMTQzOC42OTIsMzEwLjI2NTYgUTE0MzguMzQ4MiwzMTAuMjY1NiAxNDM4LjE0NTEsMzEwLjA2MjUgUTE0MzcuOTQyLDMwOS44NzUgMTQzNy44MzI2LDMwOS4zNTk0IFExNDM3Ljc4NTcsMzA5IDE0MzcuNTk4MiwzMDguODEyNSBRMTQzNy4yNzAxLDMwOC40Mzc1IDE0MzYuNjYwNywzMDguMjE4OCBRMTQzNi4wNTEzLDMwOCAxNDM1LjQyNjMsMzA4IFExNDM0LjY2MDcsMzA4IDE0MzQuMDIwMSwzMDguMzI4MSBRMTQzMy4zOTUxLDMwOC42NTYzIDE0MzIuODk1MSwzMDkuNDA2MyBRMTQzMi40MTA3LDMxMC4xNTYzIDE0MzIuNDEwNywzMTEuMTg3NSBMMTQzMi40MTA3LDMxMi4yODEzIFExNDMyLjQxMDcsMzEzLjUxNTYgMTQzMy4zMDEzLDMxNC4zNDM4IFExNDM0LjE5MiwzMTUuMTU2MyAxNDM1Ljc4NTcsMzE1LjE1NjMgUTE0MzYuNzIzMiwzMTUuMTU2MyAxNDM3LjM3OTUsMzE0LjkwNjMgUTE0MzcuNzcwMSwzMTQuNzUgMTQzOC4xOTIsMzE0LjMxMjUgUTE0MzguNDU3NiwzMTQuMDQ2OSAxNDM4LjU5ODIsMzEzLjk2ODggUTE0MzguNzU0NSwzMTMuODkwNiAxNDM4Ljk1NzYsMzEzLjg5MDYgUTE0MzkuMjg1NywzMTMuODkwNiAxNDM5LjUzNTcsMzE0LjE1NjMgUTE0MzkuODAxMywzMTQuNDA2MyAxNDM5LjgwMTMsMzE0Ljc1IFExNDM5LjgwMTMsMzE1LjA5MzggMTQzOS40NTc2LDMxNS41IFExNDM4Ljk1NzYsMzE2LjA3ODEgMTQzOC4xNjA3LDMxNi40MDYzIFExNDM3LjA4MjYsMzE2Ljg1OTQgMTQzNS43ODU3LDMxNi44NTk0IFExNDM0LjI3MDEsMzE2Ljg1OTQgMTQzMy4wNjcsMzE2LjIzNDQgUTE0MzIuMDgyNiwzMTUuNzM0NCAxNDMxLjM5NTEsMzE0LjY3MTkgUTE0MzAuNzA3NiwzMTMuNTkzOCAxNDMwLjcwNzYsMzEyLjMxMjUgTDE0MzAuNzA3NiwzMTEuMTU2MyBRMTQzMC43MDc2LDMwOS44MjgxIDE0MzEuMzE3LDMwOC42ODc1IFExNDMxLjk0MiwzMDcuNTMxMyAxNDMzLjAzNTcsMzA2LjkyMTkgUTE0MzQuMTI5NSwzMDYuMjk2OSAxNDM1LjM2MzgsMzA2LjI5NjkgUTE0MzYuMDk4MiwzMDYuMjk2OSAxNDM2LjczODgsMzA2LjQ2ODggUTE0MzcuMzk1MSwzMDYuNjI1IDE0MzcuOTQyLDMwNi45ODQ0IFogIiBmaWxsPSIjMDAwMDAwIi8+PHRleHQgZmlsbD0iIzAwMDAwMCIgZm9udC1mYW1pbHk9InNhbnMtc2VyaWYiIGZvbnQtc2l6ZT0iMTQiIGxlbmd0aEFkanVzdD0ic3BhY2luZyIgdGV4dExlbmd0aD0iMTM2LjE3MTkiIHg9IjE0NTUuNjc2MyIgeT0iMzE2LjgzNzkiPk5vdGlmaWNhdGlvblJlcG9zaXRvcnk8L3RleHQ+PGxpbmUgc3R5bGU9InN0cm9rZTojMTgxODE4O3N0cm9rZS13aWR0aDowLjU7IiB4MT0iMTMzMC45MiIgeDI9IjE2ODQuMTA0NiIgeTE9IjMyNy4xMDk0IiB5Mj0iMzI3LjEwOTQiLz48bGluZSBzdHlsZT0ic3Ryb2tlOiMxODE4MTg7c3Ryb2tlLXdpZHRoOjAuNTsiIHgxPSIxMzMwLjkyIiB4Mj0iMTY4NC4xMDQ2IiB5MT0iMzM1LjEwOTQiIHkyPSIzMzUuMTA5NCIvPjxlbGxpcHNlIGN4PSIxMzQwLjkyIiBjeT0iMzQ5LjQxNDEiIGZpbGw9IiM4NEJFODQiIHJ4PSIzIiByeT0iMyIgc3R5bGU9InN0cm9rZTojMDM4MDQ4O3N0cm9rZS13aWR0aDoxOyIvPjx0ZXh0IGZpbGw9IiMwMDAwMDAiIGZvbnQtZmFtaWx5PSJzYW5zLXNlcmlmIiBmb250LXNpemU9IjE0IiBsZW5ndGhBZGp1c3Q9InNwYWNpbmciIHRleHRMZW5ndGg9IjI0Ny40ODE0IiB4PSIxMzQ5LjkyIiB5PSIzNTMuNjQyNiI+T3B0aW9uYWwmbHQ7Tm90aWZpY2F0aW9uJmd0OyBmaW5kQnlJZChMb25nIGlkKTwvdGV4dD48ZWxsaXBzZSBjeD0iMTM0MC45MiIgY3k9IjM2Ny4wMjM0IiBmaWxsPSIjODRCRTg0IiByeD0iMyIgcnk9IjMiIHN0eWxlPSJzdHJva2U6IzAzODA0ODtzdHJva2Utd2lkdGg6MTsiLz48dGV4dCBmaWxsPSIjMDAwMDAwIiBmb250LWZhbWlseT0ic2Fucy1zZXJpZiIgZm9udC1zaXplPSIxNCIgbGVuZ3RoQWRqdXN0PSJzcGFjaW5nIiB0ZXh0TGVuZ3RoPSIzMjkuMTg0NiIgeD0iMTM0OS45MiIgeT0iMzcxLjI1MiI+TGlzdCZsdDtOb3RpZmljYXRpb24mZ3Q7IGZpbmRCeVJlY2lwaWVudElkKExvbmcgcmVjaXBpZW50SWQpPC90ZXh0PjxlbGxpcHNlIGN4PSIxMzQwLjkyIiBjeT0iMzg0LjYzMjgiIGZpbGw9IiM4NEJFODQiIHJ4PSIzIiByeT0iMyIgc3R5bGU9InN0cm9rZTojMDM4MDQ4O3N0cm9rZS13aWR0aDoxOyIvPjx0ZXh0IGZpbGw9IiMwMDAwMDAiIGZvbnQtZmFtaWx5PSJzYW5zLXNlcmlmIiBmb250LXNpemU9IjE0IiBsZW5ndGhBZGp1c3Q9InNwYWNpbmciIHRleHRMZW5ndGg9IjIwOC41NDM5IiB4PSIxMzQ5LjkyIiB5PSIzODguODYxMyI+dm9pZCBzYXZlKE5vdGlmaWNhdGlvbiBub3RpZmljYXRpb24pPC90ZXh0PjwvZz48IS0tY2xhc3MgTm90aWZpY2F0aW9uQ2xpZW50LS0+PGcgaWQ9ImVsZW1fTm90aWZpY2F0aW9uQ2xpZW50Ij48cmVjdCBjb2RlTGluZT0iNzkiIGZpbGw9IiNGMUYxRjEiIGhlaWdodD0iNjUuNjA5NCIgaWQ9Ik5vdGlmaWNhdGlvbkNsaWVudCIgcng9IjIuNSIgcnk9IjIuNSIgc3R5bGU9InN0cm9rZTojMTgxODE4O3N0cm9rZS13aWR0aDowLjU7IiB3aWR0aD0iMjM1LjMzMDEiIHg9IjE3MTkuOTIiIHk9IjMxMi42MDk0Ii8+PGVsbGlwc2UgY3g9IjE3ODAuODExMSIgY3k9IjMyOC42MDk0IiBmaWxsPSIjQjRBN0U1IiByeD0iMTEiIHJ5PSIxMSIgc3R5bGU9InN0cm9rZTojMTgxODE4O3N0cm9rZS13aWR0aDoxOyIvPjxwYXRoIGQ9Ik0xNzgxLjc2NDIsMzI1LjI1IEwxNzgxLjc2NDIsMzMxLjkwNjMgTDE3ODMuNDgzLDMzMS45MDYzIFExNzg0LjA5MjQsMzMxLjkwNjMgMTc4NC4zNTgsMzMyLjE0MDYgUTE3ODQuNjIzNiwzMzIuMzc1IDE3ODQuNjIzNiwzMzIuNzY1NiBRMTc4NC42MjM2LDMzMy4xNDA2IDE3ODQuMzU4LDMzMy4zNzUgUTE3ODQuMDkyNCwzMzMuNjA5NCAxNzgzLjQ4MywzMzMuNjA5NCBMMTc3OC4zNDI0LDMzMy42MDk0IFExNzc3LjczMywzMzMuNjA5NCAxNzc3LjQ2NzQsMzMzLjM3NSBRMTc3Ny4yMDE3LDMzMy4xNDA2IDE3NzcuMjAxNywzMzIuNzUgUTE3NzcuMjAxNywzMzIuMzc1IDE3NzcuNDY3NCwzMzIuMTQwNiBRMTc3Ny43MzMsMzMxLjkwNjMgMTc3OC4zNDI0LDMzMS45MDYzIEwxNzgwLjA2MTEsMzMxLjkwNjMgTDE3ODAuMDYxMSwzMjUuMjUgTDE3NzguMzQyNCwzMjUuMjUgUTE3NzcuNzMzLDMyNS4yNSAxNzc3LjQ2NzQsMzI1LjAxNTYgUTE3NzcuMjAxNywzMjQuNzgxMyAxNzc3LjIwMTcsMzI0LjM5MDYgUTE3NzcuMjAxNywzMjQuMDE1NiAxNzc3LjQ2NzQsMzIzLjc4MTMgUTE3NzcuNzMzLDMyMy41NDY5IDE3NzguMzQyNCwzMjMuNTQ2OSBMMTc4My40ODMsMzIzLjU0NjkgUTE3ODQuMDkyNCwzMjMuNTQ2OSAxNzg0LjM1OCwzMjMuNzgxMyBRMTc4NC42MjM2LDMyNC4wMTU2IDE3ODQuNjIzNiwzMjQuMzkwNiBRMTc4NC42MjM2LDMyNC43ODEzIDE3ODQuMzU4LDMyNS4wMTU2IFExNzg0LjA5MjQsMzI1LjI1IDE3ODMuNDgzLDMyNS4yNSBMMTc4MS43NjQyLDMyNS4yNSBaICIgZmlsbD0iIzAwMDAwMCIvPjx0ZXh0IGZpbGw9IiMwMDAwMDAiIGZvbnQtZmFtaWx5PSJzYW5zLXNlcmlmIiBmb250LXNpemU9IjE0IiBmb250LXN0eWxlPSJpdGFsaWMiIGxlbmd0aEFkanVzdD0ic3BhY2luZyIgdGV4dExlbmd0aD0iMTA1LjA0NzkiIHg9IjE4MDEuMzExMSIgeT0iMzM0LjMzNzkiPk5vdGlmaWNhdGlvbkNsaWVudDwvdGV4dD48bGluZSBzdHlsZT0ic3Ryb2tlOiMxODE4MTg7c3Ryb2tlLXdpZHRoOjAuNTsiIHgxPSIxNzIwLjkyIiB4Mj0iMTk1NC4yNTAxIiB5MT0iMzQ0LjYwOTQiIHkyPSIzNDQuNjA5NCIvPjxsaW5lIHN0eWxlPSJzdHJva2U6IzE4MTgxODtzdHJva2Utd2lkdGg6MC41OyIgeDE9IjE3MjAuOTIiIHgyPSIxOTU0LjI1MDEiIHkxPSIzNTIuNjA5NCIgeTI9IjM1Mi42MDk0Ii8+PGVsbGlwc2UgY3g9IjE3MzAuOTIiIGN5PSIzNjYuOTE0MSIgZmlsbD0iIzg0QkU4NCIgcng9IjMiIHJ5PSIzIiBzdHlsZT0ic3Ryb2tlOiMwMzgwNDg7c3Ryb2tlLXdpZHRoOjE7Ii8+PHRleHQgZmlsbD0iIzAwMDAwMCIgZm9udC1mYW1pbHk9InNhbnMtc2VyaWYiIGZvbnQtc2l6ZT0iMTQiIGxlbmd0aEFkanVzdD0ic3BhY2luZyIgdGV4dExlbmd0aD0iMjA5LjMzMDEiIHg9IjE3MzkuOTIiIHk9IjM3MS4xNDI2Ij52b2lkIHNlbmQoTm90aWZpY2F0aW9uIG5vdGlmaWNhdGlvbik8L3RleHQ+PC9nPjwhLS1jbGFzcyBVc2VyRmVpZ25DbGllbnQtLT48ZyBpZD0iZWxlbV9Vc2VyRmVpZ25DbGllbnQiPjxyZWN0IGNvZGVMaW5lPSI4NSIgZmlsbD0iI0YxRjFGMSIgaGVpZ2h0PSI2NS42MDk0IiBpZD0iVXNlckZlaWduQ2xpZW50IiByeD0iMi41IiByeT0iMi41IiBzdHlsZT0ic3Ryb2tlOiMxODE4MTg7c3Ryb2tlLXdpZHRoOjAuNTsiIHdpZHRoPSIyNzQuOTg1NCIgeD0iMTk4OS45MiIgeT0iMzEyLjYwOTQiLz48ZWxsaXBzZSBjeD0iMjA3Mi45NzY2IiBjeT0iMzI4LjYwOTQiIGZpbGw9IiNBREQxQjIiIHJ4PSIxMSIgcnk9IjExIiBzdHlsZT0ic3Ryb2tlOiMxODE4MTg7c3Ryb2tlLXdpZHRoOjE7Ii8+PHBhdGggZD0iTTIwNzUuNzQyMywzMjQuNDg0NCBRMjA3NS44OTg1LDMyNC4yNjU2IDIwNzYuMDg2LDMyNC4xNTYzIFEyMDc2LjI3MzUsMzI0LjA0NjkgMjA3Ni40OTIzLDMyNC4wNDY5IFEyMDc2Ljg2NzMsMzI0LjA0NjkgMjA3Ny4xMDE2LDMyNC4zMTI1IFEyMDc3LjMzNiwzMjQuNTYyNSAyMDc3LjMzNiwzMjUuMTcxOSBMMjA3Ny4zMzYsMzI2LjYyNSBRMjA3Ny4zMzYsMzI3LjIzNDQgMjA3Ny4xMDE2LDMyNy41IFEyMDc2Ljg2NzMsMzI3Ljc2NTYgMjA3Ni40OTIzLDMyNy43NjU2IFEyMDc2LjE0ODUsMzI3Ljc2NTYgMjA3NS45NDU0LDMyNy41NjI1IFEyMDc1Ljc0MjMsMzI3LjM3NSAyMDc1LjYzMjksMzI2Ljg1OTQgUTIwNzUuNTg2LDMyNi41IDIwNzUuMzk4NSwzMjYuMzEyNSBRMjA3NS4wNzA0LDMyNS45Mzc1IDIwNzQuNDYxLDMyNS43MTg4IFEyMDczLjg1MTYsMzI1LjUgMjA3My4yMjY2LDMyNS41IFEyMDcyLjQ2MSwzMjUuNSAyMDcxLjgyMDQsMzI1LjgyODEgUTIwNzEuMTk1NCwzMjYuMTU2MyAyMDcwLjY5NTQsMzI2LjkwNjMgUTIwNzAuMjExLDMyNy42NTYzIDIwNzAuMjExLDMyOC42ODc1IEwyMDcwLjIxMSwzMjkuNzgxMyBRMjA3MC4yMTEsMzMxLjAxNTYgMjA3MS4xMDE2LDMzMS44NDM4IFEyMDcxLjk5MjMsMzMyLjY1NjMgMjA3My41ODYsMzMyLjY1NjMgUTIwNzQuNTIzNSwzMzIuNjU2MyAyMDc1LjE3OTgsMzMyLjQwNjMgUTIwNzUuNTcwNCwzMzIuMjUgMjA3NS45OTIzLDMzMS44MTI1IFEyMDc2LjI1NzksMzMxLjU0NjkgMjA3Ni4zOTg1LDMzMS40Njg4IFEyMDc2LjU1NDgsMzMxLjM5MDYgMjA3Ni43NTc5LDMzMS4zOTA2IFEyMDc3LjA4NiwzMzEuMzkwNiAyMDc3LjMzNiwzMzEuNjU2MyBRMjA3Ny42MDE2LDMzMS45MDYzIDIwNzcuNjAxNiwzMzIuMjUgUTIwNzcuNjAxNiwzMzIuNTkzOCAyMDc3LjI1NzksMzMzIFEyMDc2Ljc1NzksMzMzLjU3ODEgMjA3NS45NjEsMzMzLjkwNjMgUTIwNzQuODgyOSwzMzQuMzU5NCAyMDczLjU4NiwzMzQuMzU5NCBRMjA3Mi4wNzA0LDMzNC4zNTk0IDIwNzAuODY3MywzMzMuNzM0NCBRMjA2OS44ODI5LDMzMy4yMzQ0IDIwNjkuMTk1NCwzMzIuMTcxOSBRMjA2OC41MDc5LDMzMS4wOTM4IDIwNjguNTA3OSwzMjkuODEyNSBMMjA2OC41MDc5LDMyOC42NTYzIFEyMDY4LjUwNzksMzI3LjMyODEgMjA2OS4xMTczLDMyNi4xODc1IFEyMDY5Ljc0MjMsMzI1LjAzMTMgMjA3MC44MzYsMzI0LjQyMTkgUTIwNzEuOTI5OCwzMjMuNzk2OSAyMDczLjE2NDEsMzIzLjc5NjkgUTIwNzMuODk4NSwzMjMuNzk2OSAyMDc0LjUzOTEsMzIzLjk2ODggUTIwNzUuMTk1NCwzMjQuMTI1IDIwNzUuNzQyMywzMjQuNDg0NCBaICIgZmlsbD0iIzAwMDAwMCIvPjx0ZXh0IGZpbGw9IiMwMDAwMDAiIGZvbnQtZmFtaWx5PSJzYW5zLXNlcmlmIiBmb250LXNpemU9IjE0IiBsZW5ndGhBZGp1c3Q9InNwYWNpbmciIHRleHRMZW5ndGg9IjEwMC4zNzIxIiB4PSIyMDkzLjQ3NjYiIHk9IjMzNC4zMzc5Ij5Vc2VyRmVpZ25DbGllbnQ8L3RleHQ+PGxpbmUgc3R5bGU9InN0cm9rZTojMTgxODE4O3N0cm9rZS13aWR0aDowLjU7IiB4MT0iMTk5MC45MiIgeDI9IjIyNjMuOTA1NCIgeTE9IjM0NC42MDk0IiB5Mj0iMzQ0LjYwOTQiLz48bGluZSBzdHlsZT0ic3Ryb2tlOiMxODE4MTg7c3Ryb2tlLXdpZHRoOjAuNTsiIHgxPSIxOTkwLjkyIiB4Mj0iMjI2My45MDU0IiB5MT0iMzUyLjYwOTQiIHkyPSIzNTIuNjA5NCIvPjxlbGxpcHNlIGN4PSIyMDAwLjkyIiBjeT0iMzY2LjkxNDEiIGZpbGw9IiM4NEJFODQiIHJ4PSIzIiByeT0iMyIgc3R5bGU9InN0cm9rZTojMDM4MDQ4O3N0cm9rZS13aWR0aDoxOyIvPjx0ZXh0IGZpbGw9IiMwMDAwMDAiIGZvbnQtZmFtaWx5PSJzYW5zLXNlcmlmIiBmb250LXNpemU9IjE0IiBsZW5ndGhBZGp1c3Q9InNwYWNpbmciIHRleHRMZW5ndGg9IjI0OC45ODU0IiB4PSIyMDA5LjkyIiB5PSIzNzEuMTQyNiI+VXNlckRUTyBnZXRVc2VyQnlJZChMb25nIHJlY2lwaWVudElkKTwvdGV4dD48L2c+PCEtLWxpbmsgTm90aWZpY2F0aW9uU2VydmljZUltcGwgdG8gTm90aWZpY2F0aW9uU2VydmljZS0tPjxnIGlkPSJsaW5rX05vdGlmaWNhdGlvblNlcnZpY2VJbXBsX05vdGlmaWNhdGlvblNlcnZpY2UiPjxwYXRoIGNvZGVMaW5lPSI5MCIgZD0iTTE1MjQuMjQsMTgxLjY3OTQgQzE0NDEuNjYsMjE0LjAyOTQgMTM1NS45MTg5LDI0Ny42MjE0IDEyNzMuMzQ4OSwyNzkuOTgxNCAiIGZpbGw9InRyYW5zcGFyZW50IiBpZD0iTm90aWZpY2F0aW9uU2VydmljZUltcGwtdG8tTm90aWZpY2F0aW9uU2VydmljZSIgc3R5bGU9InN0cm9rZTojMTgxODE4O3N0cm9rZS13aWR0aDoxO3N0cm9rZS1kYXNoYXJyYXk6Ny4wLDcuMDsiLz48cG9seWdvbiBmaWxsPSJ0cmFuc3BhcmVudCIgcG9pbnRzPSIxMjU2LjU5LDI4Ni41NDk0LDEyNzUuNTM4MywyODUuNTY3NywxMjcxLjE1OTYsMjc0LjM5NTEsMTI1Ni41OSwyODYuNTQ5NCIgc3R5bGU9InN0cm9rZTojMTgxODE4O3N0cm9rZS13aWR0aDoxOyIvPjwvZz48IS0tbGluayBOb3RpZmljYXRpb25TZXJ2aWNlSW1wbCB0byBOb3RpZmljYXRpb25SZXBvc2l0b3J5LS0+PGcgaWQ9ImxpbmtfTm90aWZpY2F0aW9uU2VydmljZUltcGxfTm90aWZpY2F0aW9uUmVwb3NpdG9yeSI+PHBhdGggY29kZUxpbmU9IjkxIiBkPSJNMTYyOS4wNywxODEuNjc5NCBDMTYwMi44MSwyMTYuODM5NCAxNTczLjI1OTksMjU2LjQzMTggMTU0OC4xOTk5LDI4OS45OTE4ICIgZmlsbD0idHJhbnNwYXJlbnQiIGlkPSJOb3RpZmljYXRpb25TZXJ2aWNlSW1wbC10by1Ob3RpZmljYXRpb25SZXBvc2l0b3J5IiBzdHlsZT0ic3Ryb2tlOiMxODE4MTg7c3Ryb2tlLXdpZHRoOjE7c3Ryb2tlLWRhc2hhcnJheTo3LjAsNy4wOyIvPjxwb2x5Z29uIGZpbGw9IiMxODE4MTgiIHBvaW50cz0iMTU0NC42MSwyOTQuNzk5NCwxNTUzLjE5OTksMjg5Ljk4MTMsMTU0Ny42MDE2LDI5MC43OTMxLDE1NDYuNzg5OCwyODUuMTk0OCwxNTQ0LjYxLDI5NC43OTk0IiBzdHlsZT0ic3Ryb2tlOiMxODE4MTg7c3Ryb2tlLXdpZHRoOjE7Ii8+PHRleHQgZmlsbD0iIzAwMDAwMCIgZm9udC1mYW1pbHk9InNhbnMtc2VyaWYiIGZvbnQtc2l6ZT0iMTMiIGxlbmd0aEFkanVzdD0ic3BhY2luZyIgdGV4dExlbmd0aD0iMzUuMzk0NSIgeD0iMTU5MS40MiIgeT0iMjQ0LjEwNDUiPlV0aWxpc2U8L3RleHQ+PC9nPjwhLS1saW5rIE5vdGlmaWNhdGlvblNlcnZpY2VJbXBsIHRvIE5vdGlmaWNhdGlvbkNsaWVudC0tPjxnIGlkPSJsaW5rX05vdGlmaWNhdGlvblNlcnZpY2VJbXBsX05vdGlmaWNhdGlvbkNsaWVudCI+PHBhdGggY29kZUxpbmU9IjkyIiBkPSJNMTcxNS43NywxODEuNjc5NCBDMTc0Ni45OSwyMjMuNDg5NCAxNzg0LjM3MDQsMjczLjU1MTYgMTgwOS44OTA0LDMwNy43MzE2ICIgZmlsbD0idHJhbnNwYXJlbnQiIGlkPSJOb3RpZmljYXRpb25TZXJ2aWNlSW1wbC10by1Ob3RpZmljYXRpb25DbGllbnQiIHN0eWxlPSJzdHJva2U6IzE4MTgxODtzdHJva2Utd2lkdGg6MTtzdHJva2UtZGFzaGFycmF5OjcuMCw3LjA7Ii8+PHBvbHlnb24gZmlsbD0iIzE4MTgxOCIgcG9pbnRzPSIxODEzLjQ4LDMxMi41Mzk0LDE4MTEuMzAwNywzMDIuOTM0NywxODEwLjQ4ODYsMzA4LjUzMjksMTgwNC44OTA0LDMwNy43MjA4LDE4MTMuNDgsMzEyLjUzOTQiIHN0eWxlPSJzdHJva2U6IzE4MTgxODtzdHJva2Utd2lkdGg6MTsiLz48dGV4dCBmaWxsPSIjMDAwMDAwIiBmb250LWZhbWlseT0ic2Fucy1zZXJpZiIgZm9udC1zaXplPSIxMyIgbGVuZ3RoQWRqdXN0PSJzcGFjaW5nIiB0ZXh0TGVuZ3RoPSIxNzUuOTE4OSIgeD0iMTc2Ni40MiIgeT0iMjQ0LjEwNDUiPkQmIzIzMztsJiMyMzI7Z3VlIGwnZW52b2kgdmlhIGFic3RyYWN0aW9uPC90ZXh0PjwvZz48IS0tbGluayBOb3RpZmljYXRpb25TZXJ2aWNlSW1wbCB0byBVc2VyRmVpZ25DbGllbnQtLT48ZyBpZD0ibGlua19Ob3RpZmljYXRpb25TZXJ2aWNlSW1wbF9Vc2VyRmVpZ25DbGllbnQiPjxwYXRoIGNvZGVMaW5lPSI5MyIgZD0iTTE4NDEuNzYsMTgxLjYwOTQgQzE4NzguMjMsMTk1LjkwOTQgMTkxNi4xMSwyMTIuMTY5NCAxOTUwLjQyLDIyOS42MDk0IEMxOTk4LjEyLDI1My44NDk0IDIwNDQuMDg1MSwyODQuMzc5NSAyMDc4Ljk4NTEsMzA5LjExOTUgIiBmaWxsPSJ0cmFuc3BhcmVudCIgaWQ9Ik5vdGlmaWNhdGlvblNlcnZpY2VJbXBsLXRvLVVzZXJGZWlnbkNsaWVudCIgc3R5bGU9InN0cm9rZTojMTgxODE4O3N0cm9rZS13aWR0aDoxO3N0cm9rZS1kYXNoYXJyYXk6Ny4wLDcuMDsiLz48cG9seWdvbiBmaWxsPSIjMTgxODE4IiBwb2ludHM9IjIwODMuODgsMzEyLjU4OTQsMjA3OC44NTA5LDMwNC4xMjEzLDIwNzkuODAwOSwzMDkuNjk3OCwyMDc0LjIyNDQsMzEwLjY0NzgsMjA4My44OCwzMTIuNTg5NCIgc3R5bGU9InN0cm9rZTojMTgxODE4O3N0cm9rZS13aWR0aDoxOyIvPjx0ZXh0IGZpbGw9IiMwMDAwMDAiIGZvbnQtZmFtaWx5PSJzYW5zLXNlcmlmIiBmb250LXNpemU9IjEzIiBsZW5ndGhBZGp1c3Q9InNwYWNpbmciIHRleHRMZW5ndGg9IjIwNS4yMTM0IiB4PSIxOTgxLjQyIiB5PSIyNDQuMTA0NSI+UiYjMjMzO2N1cCYjMjMyO3JlIHV0aWxpc2F0ZXVyIHZpYSBGZWlnbkNsaWVudDwvdGV4dD48L2c+PCEtLWxpbmsgTm90aWZpY2F0aW9uIHRvIERhdGVBdWRpdC0tPjxnIGlkPSJsaW5rX05vdGlmaWNhdGlvbl9EYXRlQXVkaXQiPjxwYXRoIGNvZGVMaW5lPSI5NiIgZD0iTTE1Ny43NywxNjEuMDQ5NCBDMTA3Ljk1LDE4NS4zNDk0IDU0Ljk4LDIyMi44ODk0IDM0LjQyLDI3Ny42MDk0IEM2LDM1My4yNDk0IDMwLjI1MTcsNDMxLjMwNTcgNTMuMzMxNyw0ODQuMTE1NyAiIGZpbGw9InRyYW5zcGFyZW50IiBpZD0iTm90aWZpY2F0aW9uLXRvLURhdGVBdWRpdCIgc3R5bGU9InN0cm9rZTojMTgxODE4O3N0cm9rZS13aWR0aDoxOyIvPjxwb2x5Z29uIGZpbGw9InRyYW5zcGFyZW50IiBwb2ludHM9IjYwLjU0LDUwMC42MDk0LDU4LjgyOTUsNDgxLjcxMyw0Ny44MzM4LDQ4Ni41MTg1LDYwLjU0LDUwMC42MDk0IiBzdHlsZT0ic3Ryb2tlOiMxODE4MTg7c3Ryb2tlLXdpZHRoOjE7Ii8+PC9nPjwhLS1saW5rIE5vdGlmaWNhdGlvblRlbXBsYXRlIHRvIERhdGVBdWRpdC0tPjxnIGlkPSJsaW5rX05vdGlmaWNhdGlvblRlbXBsYXRlX0RhdGVBdWRpdCI+PHBhdGggY29kZUxpbmU9Ijk3IiBkPSJNMjg0LjE4LDQwMS41Njk0IEMyMzguMjUsNDMzLjAxOTQgMTk2LjQ3MDMsNDYxLjYyNzQgMTU0LjU3MDMsNDkwLjMyNzQgIiBmaWxsPSJ0cmFuc3BhcmVudCIgaWQ9Ik5vdGlmaWNhdGlvblRlbXBsYXRlLXRvLURhdGVBdWRpdCIgc3R5bGU9InN0cm9rZTojMTgxODE4O3N0cm9rZS13aWR0aDoxOyIvPjxwb2x5Z29uIGZpbGw9InRyYW5zcGFyZW50IiBwb2ludHM9IjEzOS43Miw1MDAuNDk5NCwxNTcuOTYxLDQ5NS4yNzc1LDE1MS4xNzk3LDQ4NS4zNzczLDEzOS43Miw1MDAuNDk5NCIgc3R5bGU9InN0cm9rZTojMTgxODE4O3N0cm9rZS13aWR0aDoxOyIvPjwvZz48IS0tbGluayBOb3RpZmljYXRpb24gdG8gTm90aWZpY2F0aW9uVGVtcGxhdGUtLT48ZyBpZD0ibGlua19Ob3RpZmljYXRpb25fTm90aWZpY2F0aW9uVGVtcGxhdGUiPjxwYXRoIGNvZGVMaW5lPSIxMDAiIGQ9Ik0yOTguMTgsMTk5LjY2OTQgQzMwOS43LDIyNC44ODk0IDMxOS45NTcxLDI0Ny4zMTE4IDMzMS4xNTcxLDI3MS44MzE4ICIgZmlsbD0idHJhbnNwYXJlbnQiIGlkPSJOb3RpZmljYXRpb24tdG8tTm90aWZpY2F0aW9uVGVtcGxhdGUiIHN0eWxlPSJzdHJva2U6IzE4MTgxODtzdHJva2Utd2lkdGg6MTsiLz48cG9seWdvbiBmaWxsPSIjMTgxODE4IiBwb2ludHM9IjMzMy42NSwyNzcuMjg5NCwzMzMuNTQ5MSwyNjcuNDQxLDMzMS41NzI2LDI3Mi43NDE0LDMyNi4yNzIzLDI3MC43NjQ5LDMzMy42NSwyNzcuMjg5NCIgc3R5bGU9InN0cm9rZTojMTgxODE4O3N0cm9rZS13aWR0aDoxOyIvPjx0ZXh0IGZpbGw9IiMwMDAwMDAiIGZvbnQtZmFtaWx5PSJzYW5zLXNlcmlmIiBmb250LXNpemU9IjEzIiBsZW5ndGhBZGp1c3Q9InNwYWNpbmciIHRleHRMZW5ndGg9IjEwNi45MzkiIHg9IjMyMS40MiIgeT0iMjQ0LjEwNDUiPlV0aWxpc2UgdW4gdGVtcGxhdGU8L3RleHQ+PHRleHQgZmlsbD0iIzAwMDAwMCIgZm9udC1mYW1pbHk9InNhbnMtc2VyaWYiIGZvbnQtc2l6ZT0iMTMiIGxlbmd0aEFkanVzdD0ic3BhY2luZyIgdGV4dExlbmd0aD0iNy4yMyIgeD0iMjkzLjk2NTUiIHk9IjIyMC43NzExIj4xPC90ZXh0Pjx0ZXh0IGZpbGw9IiMwMDAwMDAiIGZvbnQtZmFtaWx5PSJzYW5zLXNlcmlmIiBmb250LXNpemU9IjEzIiBsZW5ndGhBZGp1c3Q9InNwYWNpbmciIHRleHRMZW5ndGg9IjIxLjY4MzYiIHg9IjMwOC40NDkyIiB5PSIyNjYuOTI5NyI+MC4uMTwvdGV4dD48L2c+PCEtLWxpbmsgTm90aWZpY2F0aW9uRFRPIHRvIE5vdGlmaWNhdGlvbk1hcHBlci0tPjxnIGlkPSJsaW5rX05vdGlmaWNhdGlvbkRUT19Ob3RpZmljYXRpb25NYXBwZXIiPjxwYXRoIGNvZGVMaW5lPSIxMDMiIGQ9Ik03NzMuOTQsMTgxLjkwOTQgQzc1OS4zNSwyMDMuMDU5NCA3NDIuMiwyMjYuODQ5NCA3MjUuNDIsMjQ3LjYwOTQgQzcwOS45NywyNjYuNzE5NCA2OTUuODM3OCwyODIuNDU0OSA2NzkuODE3OCwyOTkuMzU0OSAiIGZpbGw9InRyYW5zcGFyZW50IiBpZD0iTm90aWZpY2F0aW9uRFRPLXRvLU5vdGlmaWNhdGlvbk1hcHBlciIgc3R5bGU9InN0cm9rZTojMTgxODE4O3N0cm9rZS13aWR0aDoxO3N0cm9rZS1kYXNoYXJyYXk6Ny4wLDcuMDsiLz48cG9seWdvbiBmaWxsPSIjMTgxODE4IiBwb2ludHM9IjY3NS42OSwzMDMuNzA5NCw2ODQuNzg0NiwyOTkuOTI5NSw2NzkuMTI5OCwzMDAuMDgwNiw2NzguOTc4NiwyOTQuNDI1OCw2NzUuNjksMzAzLjcwOTQiIHN0eWxlPSJzdHJva2U6IzE4MTgxODtzdHJva2Utd2lkdGg6MTsiLz48dGV4dCBmaWxsPSIjMDAwMDAwIiBmb250LWZhbWlseT0ic2Fucy1zZXJpZiIgZm9udC1zaXplPSIxMyIgbGVuZ3RoQWRqdXN0PSJzcGFjaW5nIiB0ZXh0TGVuZ3RoPSI2Ni40NzkiIHg9IjczOS40MiIgeT0iMjQ0LjEwNDUiPkNvbnZlcnRpIGVuPC90ZXh0PjwvZz48IS0tbGluayBOb3RpZmljYXRpb24gdG8gTm90aWZpY2F0aW9uTWFwcGVyLS0+PGcgaWQ9ImxpbmtfTm90aWZpY2F0aW9uX05vdGlmaWNhdGlvbk1hcHBlciI+PHBhdGggY29kZUxpbmU9IjEwNCIgZD0iTTM2OS4wMywxODYuMzQ5NCBDNDMyLjYxLDIyNC4xMTk0IDUwNi41NTEyLDI2OC4wNTU2IDU2MS45ODEyLDMwMC45NzU2ICIgZmlsbD0idHJhbnNwYXJlbnQiIGlkPSJOb3RpZmljYXRpb24tdG8tTm90aWZpY2F0aW9uTWFwcGVyIiBzdHlsZT0ic3Ryb2tlOiMxODE4MTg7c3Ryb2tlLXdpZHRoOjE7c3Ryb2tlLWRhc2hhcnJheTo3LjAsNy4wOyIvPjxwb2x5Z29uIGZpbGw9IiMxODE4MTgiIHBvaW50cz0iNTY3LjE0LDMwNC4wMzk0LDU2MS40NDQ0LDI5Ni4wMDQ1LDU2Mi44NDEsMzAxLjQ4NjIsNTU3LjM1OTMsMzAyLjg4MjgsNTY3LjE0LDMwNC4wMzk0IiBzdHlsZT0ic3Ryb2tlOiMxODE4MTg7c3Ryb2tlLXdpZHRoOjE7Ii8+PHRleHQgZmlsbD0iIzAwMDAwMCIgZm9udC1mYW1pbHk9InNhbnMtc2VyaWYiIGZvbnQtc2l6ZT0iMTMiIGxlbmd0aEFkanVzdD0ic3BhY2luZyIgdGV4dExlbmd0aD0iNjYuNDc5IiB4PSI0NzMuNDIiIHk9IjI0NC4xMDQ1Ij5Db252ZXJ0aSBlbjwvdGV4dD48L2c+PCEtLWxpbmsgTm90aWZpY2F0aW9uTWFwcGVyIHRvIE5vdGlmaWNhdGlvbi0tPjxnIGlkPSJsaW5rX05vdGlmaWNhdGlvbk1hcHBlcl9Ob3RpZmljYXRpb24iPjxwYXRoIGNvZGVMaW5lPSIxMDUiIGQ9Ik02MTIuNzksMzAzLjk1OTQgQzU5Ny40LDI3OS41MTk0IDU3NS4wMywyNDkuNDA5NCA1NDguNDIsMjI5LjYwOTQgQzQ5NS4zNywxOTAuMTM5NCA0MzEuNzczNywxNjUuNTg2NSAzNzQuNzYzNywxNDkuMDk2NSAiIGZpbGw9InRyYW5zcGFyZW50IiBpZD0iTm90aWZpY2F0aW9uTWFwcGVyLXRvLU5vdGlmaWNhdGlvbiIgc3R5bGU9InN0cm9rZTojMTgxODE4O3N0cm9rZS13aWR0aDoxO3N0cm9rZS1kYXNoYXJyYXk6Ny4wLDcuMDsiLz48cG9seWdvbiBmaWxsPSIjMTgxODE4IiBwb2ludHM9IjM2OSwxNDcuNDI5NCwzNzYuNTM0MiwxNTMuNzcyNiwzNzMuODAzMSwxNDguODE4NywzNzguNzU3LDE0Ni4wODc2LDM2OSwxNDcuNDI5NCIgc3R5bGU9InN0cm9rZTojMTgxODE4O3N0cm9rZS13aWR0aDoxOyIvPjx0ZXh0IGZpbGw9IiMwMDAwMDAiIGZvbnQtZmFtaWx5PSJzYW5zLXNlcmlmIiBmb250LXNpemU9IjEzIiBsZW5ndGhBZGp1c3Q9InNwYWNpbmciIHRleHRMZW5ndGg9IjEyMy41ODI1IiB4PSI1NjcuNDIiIHk9IjI0NC4xMDQ1Ij5DciYjMjMzO2UgdW5lIGluc3RhbmNlIGRlPC90ZXh0PjwvZz48IS0tbGluayBOb3RpZmljYXRpb24gdG8gTm90aWZpY2F0aW9uVHlwZS0tPjxnIGlkPSJsaW5rX05vdGlmaWNhdGlvbl9Ob3RpZmljYXRpb25UeXBlIj48cGF0aCBjb2RlTGluZT0iMTA4IiBkPSJNMTU3LjY5LDE3OC42ODk0IEMxMjEuMiwyMDMuNTk5NCA4NC40OCwyMzYuNzE5NCA2NC40MiwyNzcuNjA5NCBDMzcuOCwzMzEuODc5NCAzMS4wNywzNjMuMTk5NCA2NC40Miw0MTMuNjA5NCBDOTEuMzUsNDU0LjMxOTQgMjEyLjQ1NzcsNDk2LjMxOTkgMjkyLjM0NzcsNTIwLjUxOTkgIiBmaWxsPSJ0cmFuc3BhcmVudCIgaWQ9Ik5vdGlmaWNhdGlvbi10by1Ob3RpZmljYXRpb25UeXBlIiBzdHlsZT0ic3Ryb2tlOiMxODE4MTg7c3Ryb2tlLXdpZHRoOjE7Ii8+PHBvbHlnb24gZmlsbD0iIzE4MTgxOCIgcG9pbnRzPSIyOTguMDksNTIyLjI1OTQsMjkwLjYzNjEsNTE1LjgyMiwyOTMuMzA0Nyw1MjAuODA5OCwyODguMzE2OSw1MjMuNDc4NCwyOTguMDksNTIyLjI1OTQiIHN0eWxlPSJzdHJva2U6IzE4MTgxODtzdHJva2Utd2lkdGg6MTsiLz48dGV4dCBmaWxsPSIjMDAwMDAwIiBmb250LWZhbWlseT0ic2Fucy1zZXJpZiIgZm9udC1zaXplPSIxMyIgbGVuZ3RoQWRqdXN0PSJzcGFjaW5nIiB0ZXh0TGVuZ3RoPSIyNC41NzE4IiB4PSI2NS40MiIgeT0iMzUxLjEwNDUiPnR5cGU8L3RleHQ+PC9nPjwhLS1saW5rIE5vdGlmaWNhdGlvbiB0byBOb3RpZmljYXRpb25TdGF0dXMtLT48ZyBpZD0ibGlua19Ob3RpZmljYXRpb25fTm90aWZpY2F0aW9uU3RhdHVzIj48cGF0aCBjb2RlTGluZT0iMTA5IiBkPSJNMjMzLjk0LDE5OS43Mzk0IEMyMzAuMDYsMjA5Ljc3OTQgMjI2LjE0LDIxOS45Mzk0IDIyMi40MiwyMjkuNjA5NCBDMjE0LjE3LDI1MS4wNTk0IDIwNy4yMzI0LDI2OS4xNjQ5IDE5OS40NzI0LDI4OS40NjQ5ICIgZmlsbD0idHJhbnNwYXJlbnQiIGlkPSJOb3RpZmljYXRpb24tdG8tTm90aWZpY2F0aW9uU3RhdHVzIiBzdHlsZT0ic3Ryb2tlOiMxODE4MTg7c3Ryb2tlLXdpZHRoOjE7Ii8+PHBvbHlnb24gZmlsbD0iIzE4MTgxOCIgcG9pbnRzPSIxOTcuMzMsMjk1LjA2OTQsMjA0LjI3OTksMjg4LjA5MDksMTk5LjExNTMsMjkwLjM5OSwxOTYuODA3MywyODUuMjM0NCwxOTcuMzMsMjk1LjA2OTQiIHN0eWxlPSJzdHJva2U6IzE4MTgxODtzdHJva2Utd2lkdGg6MTsiLz48dGV4dCBmaWxsPSIjMDAwMDAwIiBmb250LWZhbWlseT0ic2Fucy1zZXJpZiIgZm9udC1zaXplPSIxMyIgbGVuZ3RoQWRqdXN0PSJzcGFjaW5nIiB0ZXh0TGVuZ3RoPSIzNC42ODM2IiB4PSIyMjMuNDIiIHk9IjI0NC4xMDQ1Ij5zdGF0dXM8L3RleHQ+PC9nPjwhLS1saW5rIE5vdGlmaWNhdGlvblRlbXBsYXRlIHRvIE5vdGlmaWNhdGlvblR5cGUtLT48ZyBpZD0ibGlua19Ob3RpZmljYXRpb25UZW1wbGF0ZV9Ob3RpZmljYXRpb25UeXBlIj48cGF0aCBjb2RlTGluZT0iMTEwIiBkPSJNMzY0LjQyLDQxMy44MTk0IEMzNjQuNDIsNDM5LjI4OTQgMzY0LjQyLDQ2MS44MTk0IDM2NC40Miw0ODUuMzk5NCAiIGZpbGw9InRyYW5zcGFyZW50IiBpZD0iTm90aWZpY2F0aW9uVGVtcGxhdGUtdG8tTm90aWZpY2F0aW9uVHlwZSIgc3R5bGU9InN0cm9rZTojMTgxODE4O3N0cm9rZS13aWR0aDoxOyIvPjxwb2x5Z29uIGZpbGw9IiMxODE4MTgiIHBvaW50cz0iMzY0LjQyLDQ5MS4zOTk0LDM2OC40Miw0ODIuMzk5NCwzNjQuNDIsNDg2LjM5OTQsMzYwLjQyLDQ4Mi4zOTk0LDM2NC40Miw0OTEuMzk5NCIgc3R5bGU9InN0cm9rZTojMTgxODE4O3N0cm9rZS13aWR0aDoxOyIvPjx0ZXh0IGZpbGw9IiMwMDAwMDAiIGZvbnQtZmFtaWx5PSJzYW5zLXNlcmlmIiBmb250LXNpemU9IjEzIiBsZW5ndGhBZGp1c3Q9InNwYWNpbmciIHRleHRMZW5ndGg9IjI0LjU3MTgiIHg9IjM2NS40MiIgeT0iNDU4LjEwNDUiPnR5cGU8L3RleHQ+PC9nPjwhLS1saW5rIE5vdGlmaWNhdGlvbkRUTyB0byBOb3RpZmljYXRpb25UeXBlLS0+PGcgaWQ9ImxpbmtfTm90aWZpY2F0aW9uRFRPX05vdGlmaWNhdGlvblR5cGUiPjxwYXRoIGNvZGVMaW5lPSIxMTEiIGQ9Ik04MzAuNDUsMTgxLjgwOTQgQzg0Ni4zNCwyNDUuNjg5NCA4NTkuODMsMzQ3Ljg2OTQgODA4LjQyLDQxMy42MDk0IEM3NjEuOCw0NzMuMjI5NCA1NDguNDg4Niw1MTMuMzI2NSA0MzYuNTE4Niw1MzAuNzU2NSAiIGZpbGw9InRyYW5zcGFyZW50IiBpZD0iTm90aWZpY2F0aW9uRFRPLXRvLU5vdGlmaWNhdGlvblR5cGUiIHN0eWxlPSJzdHJva2U6IzE4MTgxODtzdHJva2Utd2lkdGg6MTsiLz48cG9seWdvbiBmaWxsPSIjMTgxODE4IiBwb2ludHM9IjQzMC41OSw1MzEuNjc5NCw0NDAuMDk4Miw1MzQuMjQ3NCw0MzUuNTMwNSw1MzAuOTEwMyw0MzguODY3Niw1MjYuMzQyNiw0MzAuNTksNTMxLjY3OTQiIHN0eWxlPSJzdHJva2U6IzE4MTgxODtzdHJva2Utd2lkdGg6MTsiLz48dGV4dCBmaWxsPSIjMDAwMDAwIiBmb250LWZhbWlseT0ic2Fucy1zZXJpZiIgZm9udC1zaXplPSIxMyIgbGVuZ3RoQWRqdXN0PSJzcGFjaW5nIiB0ZXh0TGVuZ3RoPSIyNC41NzE4IiB4PSI4NDYuNDIiIHk9IjM1MS4xMDQ1Ij50eXBlPC90ZXh0PjwvZz48IS0tU1JDPVt0TFJEUmpmMDRCeHhBS1EtMDZnMnNjakw4UDUwNllHV0tHV0ZpQjRkVDVEeHhVd2tLTDdRem1kRnVIVmh4N2hqc0NRR2dFZ2Y1c21GeV9sRFJteWMtVndIMnd2djhZMTQxSVdxcl9iVUdJZ3YyN1pBOGJJVUh4RzhPUGJlX2lXM1BmYk5BQlN5RzNZNzJNU1JvVThPT1JzT1VydUZCWUVjNTRCT09yZDhETXBvbFNadGFsXzhxNkNGSWFpTVEwV0MzcW9Pbmg1YlVsTzBGZlhGMjJKSThucGhZZkFiZVFGeXpobjJpRTZBYlBxZE9XQ3loNXViYWxVU21mYlBzYWZKRjFrOEtJY3NHS0VmZ3haVmZHWVFWamZfaDNKSmNHOWI3bVRJNkFVSFNMMng1LUNWWVlvNjB6dDZuVWJZRjlsSlN4TE9xVV9qVWROVG9VekM2ZWRSd044b010dXJDakZiRkpza1o4UEU0MmZWc2MydW0wTUJpVlFmaWVTZDM3SURLaVBtYU9JeHVfM3lEbGNUdER6MGZkZDRMUnc3RENhYUgzcUtzdUpSMlg4ckdUTlhnUDUtX1dUZmlrQWJyb0hqTkxrbUQ0TFBFMUthT2VqSVNtY1BpM3daVzZiSHRYcmtFU2RkamF0R1lITlF6VGoxWDNlUGpCYUROSVNKZEpJdTZ2V0MyYXpkR2dEeVBESDE4TzhnY2lkWjVSNUg0UXhMaDZ5NFNxWnk4Z25wN0ZXY2NqX01wcGJOLWFrVFNHR1JyNmtvTklVZ1ZaaWxXeWZpcEVKdGlMZUhqTTJnTXdkcDVJclNiY0pfUEMtS1NEMU5sZXo5VE81T2M1TVc3RVJBME05YV9jakd4WjFENURVOXQ5TGpuZThXVnI3MGlmeUc5ZUI2QWRRck00dEVtZEVKNllnQk1lN0l1MHlsVGhFbXh5UjVDSzBBbGhsTnU0LVdlVFdNdHdwem95WThHUjRDUUZaUnU2WERJQW9GYWtPYVdWdXFQWm13Qy1GcDM2dXB6TXJtZjVzU3pjUFhsRTRKRU5NNVYyREFybWd1NlNzR0VDdjRBS1FuMU5RalFLYzNwakxkY0cxSkNyUDd0UnVYY2o5cERWTUFUV0N5Yi1wOEhLZktZSzJCanpZSVBFNU95Ry03bHFQVGRONTJPN0lpS1p3M2x4UDM3VnJ0WXhqR0lQSmtZMlhfc01ITzlOM0I2UEpoZGJYRkFzczNIbmhseWRzR2ZWYUJHTDRpNi1lQkllZkhNLUZxM05KTnZocEdqMzFDckxHdEhTQ1dkOXlKTER0X0xVdE51WTdEU3hCWHlqN0dYaGZwLXBQRC1menlLWmEyXy1EbUlBLVQ5YnpIRHJrZ3g3eVJyVldmb1JHUFg1NnQ0dFFiRFZzbXdEMmJMWW1waHl0VEpmX1JVVUozZlRrTFBBUVBnQi1IU0luaklJaVpRTUhIZjBYU3E1NGJ4RmhwdHExd0lZVUlRY1RwVDdYYWFOdnA3RllkTVRyekhTcDVMVVNWZ3VOdE1aMzhka0otMG0wMF0tLT48L2c+PC9zdmc+" parent="1" vertex="1">
            <mxGeometry x="-10" width="2271" height="599" as="geometry" />
          </mxCell>
        </UserObject>
      </root>
    </mxGraphModel>
  </diagram>
</mxfile>
